<?xml version="1.0" encoding="UTF-8"?>
<!DOCTYPE svg PUBLIC "-//W3C//DTD SVG 1.1//EN" "http://www.w3.org/Graphics/SVG/1.1/DTD/svg11.dtd">
<svg xmlns="http://www.w3.org/2000/svg" version="1.1" width="1000px" height="1000px" style="shape-rendering:geometricPrecision; text-rendering:geometricPrecision; image-rendering:optimizeQuality; fill-rule:evenodd; clip-rule:evenodd" xmlns:xlink="http://www.w3.org/1999/xlink">
<g><path style="opacity:0.851" fill="#000000" d="M 112.5,421.5 C 118.425,421.192 124.259,421.525 130,422.5C 130.667,442.167 130.667,461.833 130,481.5C 127.094,495.235 118.594,502.235 104.5,502.5C 84.9721,499.963 76.9721,488.963 80.5,469.5C 86.1667,469.5 91.8333,469.5 97.5,469.5C 97.3343,473.846 97.501,478.179 98,482.5C 100.513,486.212 104.013,487.378 108.5,486C 110.333,485.5 111.5,484.333 112,482.5C 112.5,462.169 112.667,441.836 112.5,421.5 Z"/></g>
<g><path style="opacity:0.873" fill="#000000" d="M 163.5,421.5 C 184.926,417.625 199.759,425.625 208,445.5C 211.555,457.28 211.222,468.946 207,480.5C 196.385,499.554 180.552,506.054 159.5,500C 142.612,492.059 134.612,479.059 135.5,461C 136.168,441.44 145.501,428.273 163.5,421.5 Z M 167.5,436.5 C 181.462,434.63 189.629,440.63 192,454.5C 192.988,461.668 192.322,468.668 190,475.5C 182.982,486.945 173.482,489.445 161.5,483C 155.916,476.986 153.25,469.819 153.5,461.5C 152.799,449.88 157.465,441.546 167.5,436.5 Z"/></g>
<g><path style="opacity:0.859" fill="#000000" d="M 220.5,421.5 C 226.425,421.192 232.259,421.525 238,422.5C 238.333,441.833 238.667,461.167 239,480.5C 241.764,484.767 245.764,486.767 251,486.5C 257.885,486.91 262.218,483.91 264,477.5C 264.5,458.836 264.667,440.17 264.5,421.5C 270.425,421.192 276.259,421.525 282,422.5C 282.911,442.534 282.578,462.534 281,482.5C 278.57,491.168 273.07,497.002 264.5,500C 250.887,504.071 238.387,501.904 227,493.5C 224.938,491.099 223.271,488.433 222,485.5C 220.545,464.22 220.045,442.887 220.5,421.5 Z"/></g>
<g><path style="opacity:0.855" fill="#000000" d="M 294.5,421.5 C 308.837,421.333 323.171,421.5 337.5,422C 354.133,425.077 360.3,434.91 356,451.5C 353.808,456.359 350.308,459.859 345.5,462C 348.539,463.031 351.039,464.865 353,467.5C 354.657,476.071 355.657,484.738 356,493.5C 358.039,494.978 358.872,496.978 358.5,499.5C 352.132,499.83 345.798,499.496 339.5,498.5C 338.902,497.205 338.402,495.872 338,494.5C 337.667,487.5 337.333,480.5 337,473.5C 336.626,472.584 336.126,471.75 335.5,471C 327.905,469.644 320.238,469.144 312.5,469.5C 312.5,479.5 312.5,489.5 312.5,499.5C 306.5,499.5 300.5,499.5 294.5,499.5C 294.5,473.5 294.5,447.5 294.5,421.5 Z M 312.5,437.5 C 320.174,437.334 327.841,437.5 335.5,438C 338.666,439.666 340,442.332 339.5,446C 340.074,450.203 338.408,452.87 334.5,454C 327.174,454.5 319.841,454.666 312.5,454.5C 312.5,448.833 312.5,443.167 312.5,437.5 Z"/></g>
<g><path style="opacity:0.86" fill="#000000" d="M 382.5,421.5 C 389.841,421.334 397.174,421.5 404.5,422C 417.91,425.241 424.243,433.741 423.5,447.5C 418.489,447.666 413.489,447.499 408.5,447C 407.5,440.667 403.833,437 397.5,436C 392.597,435.063 387.93,435.73 383.5,438C 379.257,442.432 379.59,446.432 384.5,450C 394.552,452.12 404.552,454.453 414.5,457C 426.546,463.727 430.046,473.56 425,486.5C 417.941,497.449 407.774,502.782 394.5,502.5C 383.435,502.652 374.268,498.652 367,490.5C 364.173,485.523 362.673,480.189 362.5,474.5C 368.167,474.5 373.833,474.5 379.5,474.5C 380.523,483.838 385.856,488.172 395.5,487.5C 400.655,487.381 405.155,485.714 409,482.5C 409.929,478.756 409.429,475.256 407.5,472C 396.721,469.209 386.055,466.209 375.5,463C 367.383,459.615 363.717,453.449 364.5,444.5C 364.032,438.068 366.032,432.568 370.5,428C 374.147,425.013 378.147,422.846 382.5,421.5 Z"/></g>
<g><path style="opacity:0.865" fill="#000000" d="M 464.5,421.5 C 475.505,421.333 486.505,421.5 497.5,422C 513.241,422.407 523.074,430.24 527,445.5C 530.251,460.151 528.584,474.151 522,487.5C 517.195,493.488 511.028,497.321 503.5,499C 490.504,499.5 477.504,499.667 464.5,499.5C 464.5,473.5 464.5,447.5 464.5,421.5 Z M 482.5,437.5 C 488.509,437.334 494.509,437.501 500.5,438C 507.415,441.645 510.915,447.478 511,455.5C 511.991,463.881 510.657,471.881 507,479.5C 505.786,481.049 504.286,482.215 502.5,483C 495.582,484.551 488.582,484.884 481.5,484C 482.491,468.578 482.824,453.078 482.5,437.5 Z"/></g>
<g><path style="opacity:0.848" fill="#000000" d="M 535.5,421.5 C 554.167,421.5 572.833,421.5 591.5,421.5C 591.5,426.833 591.5,432.167 591.5,437.5C 578.833,437.5 566.167,437.5 553.5,437.5C 553.803,442.43 553.469,447.263 552.5,452C 564.495,452.5 576.495,452.667 588.5,452.5C 588.5,457.5 588.5,462.5 588.5,467.5C 576.833,467.5 565.167,467.5 553.5,467.5C 553.807,473.093 553.473,478.593 552.5,484C 566.163,484.5 579.829,484.667 593.5,484.5C 593.5,489.5 593.5,494.5 593.5,499.5C 574.167,499.5 554.833,499.5 535.5,499.5C 535.5,473.5 535.5,447.5 535.5,421.5 Z"/></g>
<g><path style="opacity:0.869" fill="#000000" d="M 632.5,421.5 C 644.505,421.333 656.505,421.5 668.5,422C 683.41,423.409 691.41,431.576 692.5,446.5C 692.086,459.525 685.752,468.025 673.5,472C 665.5,472.333 657.5,472.667 649.5,473C 650.833,481.667 650.833,490.333 649.5,499C 643.843,499.499 638.176,499.666 632.5,499.5C 632.5,473.5 632.5,447.5 632.5,421.5 Z M 649.5,438.5 C 656.736,437.096 664.069,437.263 671.5,439C 674.677,443.561 675.177,448.394 673,453.5C 671.681,455.487 669.848,456.654 667.5,457C 661.5,457.667 655.5,457.667 649.5,457C 650.826,450.734 650.826,444.568 649.5,438.5 Z"/></g>
<g><path style="opacity:0.839" fill="#000000" d="M 696.5,421.5 C 702.5,421.5 708.5,421.5 714.5,421.5C 714.5,442.5 714.5,463.5 714.5,484.5C 726.5,484.5 738.5,484.5 750.5,484.5C 750.5,489.5 750.5,494.5 750.5,499.5C 732.5,499.5 714.5,499.5 696.5,499.5C 696.5,473.5 696.5,447.5 696.5,421.5 Z"/></g>
<g><path style="opacity:0.859" fill="#000000" d="M 759.5,421.5 C 765.425,421.192 771.259,421.525 777,422.5C 777.333,441.833 777.667,461.167 778,480.5C 780.764,484.767 784.764,486.767 790,486.5C 797.133,487.347 801.467,484.347 803,477.5C 803.5,458.836 803.667,440.17 803.5,421.5C 809.425,421.192 815.259,421.525 821,422.5C 821.911,442.534 821.578,462.534 820,482.5C 817.623,491.212 812.123,497.045 803.5,500C 791.581,503.593 780.247,502.26 769.5,496C 765.908,493.079 763.075,489.579 761,485.5C 759.545,464.22 759.045,442.887 759.5,421.5 Z"/></g>
<g><path style="opacity:0.882" fill="#000000" d="M 832.5,421.5 C 838.167,421.5 843.833,421.5 849.5,421.5C 849.5,447.5 849.5,473.5 849.5,499.5C 843.833,499.5 838.167,499.5 832.5,499.5C 832.5,473.5 832.5,447.5 832.5,421.5 Z"/></g>
<g><path style="opacity:0.837" fill="#000000" d="M 858.5,421.5 C 877.167,421.5 895.833,421.5 914.5,421.5C 914.5,426.833 914.5,432.167 914.5,437.5C 901.5,437.5 888.5,437.5 875.5,437.5C 875.5,442.5 875.5,447.5 875.5,452.5C 887.5,452.5 899.5,452.5 911.5,452.5C 911.5,457.5 911.5,462.5 911.5,467.5C 899.5,467.5 887.5,467.5 875.5,467.5C 875.5,473.167 875.5,478.833 875.5,484.5C 889.167,484.5 902.833,484.5 916.5,484.5C 916.5,489.5 916.5,494.5 916.5,499.5C 896.924,499.826 877.424,499.493 858,498.5C 857.177,472.761 857.343,447.094 858.5,421.5 Z"/></g>
<g><path style="opacity:0.558" fill="#000000" d="M 357.5,509.5 C 359.857,509.337 362.19,509.503 364.5,510C 364.957,510.414 365.291,510.914 365.5,511.5C 362.976,513.19 360.976,515.357 359.5,518C 357.421,518.808 355.421,518.641 353.5,517.5C 355.024,514.926 356.358,512.259 357.5,509.5 Z"/></g>
<g><path style="opacity:0.749" fill="#000000" d="M 242.5,519.5 C 248.509,519.334 254.509,519.501 260.5,520C 270.033,522.557 274.699,528.891 274.5,539C 274.912,547.823 271.245,554.156 263.5,558C 256.508,558.5 249.508,558.666 242.5,558.5C 242.5,545.5 242.5,532.5 242.5,519.5 Z M 251.5,527.5 C 261.006,526.009 265.34,530.009 264.5,539.5C 264.927,548.724 260.593,552.057 251.5,549.5C 251.5,542.167 251.5,534.833 251.5,527.5 Z"/></g>
<g><path style="opacity:0.688" fill="#000000" d="M 276.5,519.5 C 279.5,519.5 282.5,519.5 285.5,519.5C 285.5,532.5 285.5,545.5 285.5,558.5C 282.223,558.784 279.057,558.451 276,557.5C 275.188,544.758 275.354,532.091 276.5,519.5 Z"/></g>
<g><path style="opacity:0.744" fill="#000000" d="M 287.5,519.5 C 296.5,519.5 305.5,519.5 314.5,519.5C 314.5,522.167 314.5,524.833 314.5,527.5C 308.5,527.5 302.5,527.5 296.5,527.5C 296.5,529.833 296.5,532.167 296.5,534.5C 302.167,534.5 307.833,534.5 313.5,534.5C 313.5,537.167 313.5,539.833 313.5,542.5C 307.833,542.5 302.167,542.5 296.5,542.5C 296.5,547.833 296.5,553.167 296.5,558.5C 293.5,558.5 290.5,558.5 287.5,558.5C 287.5,545.5 287.5,532.5 287.5,519.5 Z"/></g>
<g><path style="opacity:0.756" fill="#000000" d="M 315.5,519.5 C 324.173,519.334 332.84,519.5 341.5,520C 342.435,522.381 342.768,524.881 342.5,527.5C 336.5,527.5 330.5,527.5 324.5,527.5C 324.5,529.833 324.5,532.167 324.5,534.5C 329.833,534.5 335.167,534.5 340.5,534.5C 340.5,537.167 340.5,539.833 340.5,542.5C 335.167,542.5 329.833,542.5 324.5,542.5C 324.5,547.833 324.5,553.167 324.5,558.5C 321.5,558.5 318.5,558.5 315.5,558.5C 315.5,545.5 315.5,532.5 315.5,519.5 Z"/></g>
<g><path style="opacity:0.734" fill="#000000" d="M 343.5,519.5 C 352.464,520.536 361.464,520.536 370.5,519.5C 370.5,522.167 370.5,524.833 370.5,527.5C 364.463,527.171 358.463,527.504 352.5,528.5C 353.767,530.371 353.767,532.204 352.5,534C 358.157,534.499 363.824,534.666 369.5,534.5C 369.5,537.167 369.5,539.833 369.5,542.5C 363.824,542.334 358.157,542.501 352.5,543C 353.833,545 353.833,547 352.5,549C 358.833,549.333 365.167,549.667 371.5,550C 372.833,552.667 372.833,555.333 371.5,558C 362.173,558.5 352.839,558.666 343.5,558.5C 343.5,545.5 343.5,532.5 343.5,519.5 Z"/></g>
<g><path style="opacity:0.742" fill="#000000" d="M 375.5,519.5 C 382.841,519.334 390.174,519.5 397.5,520C 405.087,522.003 407.92,526.836 406,534.5C 405.028,536.305 403.861,537.972 402.5,539.5C 404.619,545.052 406.285,550.719 407.5,556.5C 407.291,557.086 406.957,557.586 406.5,558C 403.183,558.498 399.85,558.665 396.5,558.5C 396.666,554.486 396.499,550.486 396,546.5C 394.302,545.267 392.302,544.6 390,544.5C 388.167,544.667 386.333,544.833 384.5,545C 385.833,549.333 385.833,553.667 384.5,558C 381.518,558.498 378.518,558.665 375.5,558.5C 375.5,545.5 375.5,532.5 375.5,519.5 Z M 384.5,528.5 C 387.678,527.295 391.012,527.295 394.5,528.5C 397.364,529.758 398.03,531.758 396.5,534.5C 392.541,535.66 388.541,535.827 384.5,535C 385.811,532.726 385.811,530.56 384.5,528.5 Z"/></g>
<g><path style="opacity:0.715" fill="#000000" d="M 409.5,519.5 C 418.833,519.5 428.167,519.5 437.5,519.5C 437.5,522.167 437.5,524.833 437.5,527.5C 431.158,527.334 424.825,527.5 418.5,528C 419.423,530.041 419.756,532.208 419.5,534.5C 425.167,534.5 430.833,534.5 436.5,534.5C 436.5,537.167 436.5,539.833 436.5,542.5C 430.491,542.334 424.491,542.501 418.5,543C 419.423,545.041 419.756,547.208 419.5,549.5C 425.833,549.5 432.167,549.5 438.5,549.5C 438.5,552.5 438.5,555.5 438.5,558.5C 428.833,558.5 419.167,558.5 409.5,558.5C 409.5,545.5 409.5,532.5 409.5,519.5 Z"/></g>
<g><path style="opacity:0.754" fill="#000000" d="M 440.5,519.5 C 444.007,518.994 447.174,519.66 450,521.5C 453.414,527.997 457.081,534.33 461,540.5C 461.5,533.508 461.666,526.508 461.5,519.5C 464.833,519.5 468.167,519.5 471.5,519.5C 471.5,532.5 471.5,545.5 471.5,558.5C 468.167,558.5 464.833,558.5 461.5,558.5C 457.968,551.105 454.134,543.772 450,536.5C 449.5,543.826 449.334,551.159 449.5,558.5C 446.5,558.5 443.5,558.5 440.5,558.5C 440.5,545.5 440.5,532.5 440.5,519.5 Z"/></g>
<g><path style="opacity:0.736" fill="#000000" d="M 485.5,519.5 C 495.501,517.642 502.334,521.309 506,530.5C 506.333,527.167 506.667,523.833 507,520.5C 510.057,519.549 513.223,519.216 516.5,519.5C 516.5,532.5 516.5,545.5 516.5,558.5C 513.223,558.784 510.057,558.451 507,557.5C 506.667,554.167 506.333,550.833 506,547.5C 505.333,549.5 504.667,551.5 504,553.5C 497.63,558.12 490.463,559.62 482.5,558C 473.941,551.207 471.108,542.373 474,531.5C 476.019,525.65 479.852,521.65 485.5,519.5 Z M 488.5,527.5 C 490.199,527.34 491.866,527.506 493.5,528C 495.342,529.911 497.009,531.911 498.5,534C 501.146,534.497 503.813,534.664 506.5,534.5C 506.5,537.833 506.5,541.167 506.5,544.5C 503.482,544.335 500.482,544.502 497.5,545C 495.674,550.228 492.007,551.895 486.5,550C 482.757,545.521 481.591,540.354 483,534.5C 483.967,531.379 485.8,529.046 488.5,527.5 Z"/></g>
<g><path style="opacity:0.719" fill="#000000" d="M 520.5,519.5 C 529.5,519.5 538.5,519.5 547.5,519.5C 547.5,522.167 547.5,524.833 547.5,527.5C 541.5,527.5 535.5,527.5 529.5,527.5C 529.5,529.833 529.5,532.167 529.5,534.5C 535.167,534.5 540.833,534.5 546.5,534.5C 546.5,537.167 546.5,539.833 546.5,542.5C 540.833,542.5 535.167,542.5 529.5,542.5C 529.5,544.833 529.5,547.167 529.5,549.5C 536.175,549.666 542.842,549.5 549.5,549C 555.167,542 560.833,535 566.5,528C 560.509,527.501 554.509,527.334 548.5,527.5C 548.5,524.833 548.5,522.167 548.5,519.5C 558.167,519.5 567.833,519.5 577.5,519.5C 577.665,522.518 577.498,525.518 577,528.5C 571.5,535.333 566,542.167 560.5,549C 566.157,549.499 571.824,549.666 577.5,549.5C 577.5,552.5 577.5,555.5 577.5,558.5C 558.497,558.667 539.497,558.5 520.5,558C 519.176,545.167 519.176,532.333 520.5,519.5 Z"/></g>
<g><path style="opacity:0.72" fill="#000000" d="M 622.5,519.5 C 625.5,519.5 628.5,519.5 631.5,519.5C 633.491,527.975 635.991,536.309 639,544.5C 641.025,536.398 643.358,528.398 646,520.5C 648.719,519.556 651.552,519.223 654.5,519.5C 651.565,532.137 647.732,544.47 643,556.5C 641.82,557.684 640.32,558.351 638.5,558.5C 636.68,558.351 635.18,557.684 634,556.5C 630.918,545.587 627.252,534.92 623,524.5C 622.506,522.866 622.34,521.199 622.5,519.5 Z"/></g>
<g><path style="opacity:0.776" fill="#000000" d="M 665.5,519.5 C 683.967,519.053 691.8,528.053 689,546.5C 683.596,557.738 674.763,561.405 662.5,557.5C 652.853,549.786 650.353,540.119 655,528.5C 658.103,524.886 661.603,521.886 665.5,519.5 Z M 668.5,527.5 C 677.909,528.611 681.743,533.945 680,543.5C 677.897,549.469 673.73,551.636 667.5,550C 665.185,548.891 663.685,547.057 663,544.5C 661.076,537.441 662.91,531.775 668.5,527.5 Z"/></g>
<g><path style="opacity:0.762" fill="#000000" d="M 693.5,519.5 C 696.5,519.5 699.5,519.5 702.5,519.5C 702.334,528.506 702.5,537.506 703,546.5C 703.787,549.565 705.787,550.898 709,550.5C 711.034,550.646 712.701,549.98 714,548.5C 714.5,538.839 714.666,529.172 714.5,519.5C 717.5,519.5 720.5,519.5 723.5,519.5C 723.933,530.91 723.433,542.244 722,553.5C 718.569,557.885 714.069,559.552 708.5,558.5C 702.655,559.236 698.155,557.236 695,552.5C 693.569,541.578 693.069,530.578 693.5,519.5 Z"/></g>
<g><path style="opacity:0.748" fill="#000000" d="M 735.5,519.5 C 740.599,519.175 745.599,519.675 750.5,521C 755.564,523.629 757.564,527.796 756.5,533.5C 753.5,533.5 750.5,533.5 747.5,533.5C 747.822,531.278 747.155,529.444 745.5,528C 742.833,527.333 740.167,527.333 737.5,528C 735.86,530.776 736.527,532.776 739.5,534C 746.095,534.335 751.929,536.502 757,540.5C 759.633,547.642 757.799,553.308 751.5,557.5C 745.5,558.833 739.5,558.833 733.5,557.5C 728.628,554.965 726.294,550.965 726.5,545.5C 729.572,545.183 732.572,545.516 735.5,546.5C 736.529,549.93 738.862,551.263 742.5,550.5C 747.508,551.492 749.508,549.492 748.5,544.5C 743.466,543.526 738.466,542.359 733.5,541C 727.766,537.82 725.933,532.987 728,526.5C 730.344,523.989 732.844,521.656 735.5,519.5 Z"/></g>
<g><path style="opacity:0.623" fill="#000000" d="M 593.5,538.5 C 598.179,538.334 602.845,538.501 607.5,539C 608.444,541.719 608.777,544.552 608.5,547.5C 603.167,547.5 597.833,547.5 592.5,547.5C 592.264,544.391 592.597,541.391 593.5,538.5 Z"/></g>
</svg>
