<?xml version="1.0" encoding="UTF-8"?>
<!DOCTYPE svg PUBLIC "-//W3C//DTD SVG 1.1//EN" "http://www.w3.org/Graphics/SVG/1.1/DTD/svg11.dtd">
<svg xmlns="http://www.w3.org/2000/svg" version="1.1" width="1500px" height="1500px" style="shape-rendering:geometricPrecision; text-rendering:geometricPrecision; image-rendering:optimizeQuality; fill-rule:evenodd; clip-rule:evenodd" xmlns:xlink="http://www.w3.org/1999/xlink">
<g><path style="opacity:0.994" fill="#262628" d="M 715.5,183.5 C 796.128,178.327 873.128,192.493 946.5,226C 955.513,230.171 964.18,234.838 972.5,240C 825.463,470.574 677.796,700.741 529.5,930.5C 528.333,699.834 528.167,469.167 529,238.5C 587.239,206.921 649.406,188.588 715.5,183.5 Z"/></g>
<g><path style="opacity:0.999" fill="#262628" d="M 1009.5,262.5 C 1104.42,326.561 1167.92,413.894 1200,524.5C 1232.78,651.258 1217.11,771.592 1153,885.5C 1123.63,934.391 1086.79,977.058 1042.5,1013.5C 943.013,901.01 844.347,787.844 746.5,674C 834.307,536.878 921.973,399.711 1009.5,262.5 Z"/></g>
<g><path style="opacity:0.998" fill="#262628" d="M 483.5,265.5 C 484.376,265.369 485.043,265.702 485.5,266.5C 484.501,522.304 484.168,777.971 484.5,1033.5C 373.511,954.863 307.677,847.863 287,712.5C 269.449,551.45 318.949,415.283 435.5,304C 451.11,290.543 467.11,277.71 483.5,265.5 Z"/></g>
<g><path style="opacity:0.997" fill="#262628" d="M 721.5,712.5 C 726.762,716.966 731.595,721.966 736,727.5C 825.627,831.462 915.627,935.129 1006,1038.5C 1006.69,1039.33 1006.52,1040 1005.5,1040.5C 887.874,1114.44 761.541,1134.27 626.5,1100C 584.312,1088.15 544.479,1070.99 507,1048.5C 508.066,1045.03 509.733,1041.7 512,1038.5C 582.093,929.975 651.927,821.308 721.5,712.5 Z"/></g>
<g><path style="opacity:0.944" fill="#262527" d="M 266.5,1227.5 C 288.673,1228.17 302.84,1239.17 309,1260.5C 312.332,1286.71 301.499,1303.54 276.5,1311C 248.5,1311.68 232.833,1298.01 229.5,1270C 231.565,1246.61 243.898,1232.44 266.5,1227.5 Z M 266.5,1236.5 C 287.73,1237.56 299.397,1248.73 301.5,1270C 298.726,1293.21 285.726,1303.88 262.5,1302C 245.185,1295.55 237.352,1283.05 239,1264.5C 242.36,1249.31 251.527,1239.97 266.5,1236.5 Z"/></g>
<g><path style="opacity:0.94" fill="#262528" d="M 658.5,1227.5 C 681.999,1228.5 696.166,1240.5 701,1263.5C 702.441,1287.8 691.607,1303.63 668.5,1311C 644.244,1312.75 628.744,1301.92 622,1278.5C 619.514,1250.75 631.681,1233.75 658.5,1227.5 Z M 657.5,1236.5 C 675.926,1236.77 687.426,1245.77 692,1263.5C 693.994,1278.54 688.827,1290.37 676.5,1299C 653.974,1307.32 638.808,1300.15 631,1277.5C 628.113,1255.94 636.946,1242.28 657.5,1236.5 Z"/></g>
<g><path style="opacity:0.943" fill="#262528" d="M 1322.5,1227.5 C 1346,1228.5 1360.17,1240.5 1365,1263.5C 1366.44,1287.8 1355.61,1303.63 1332.5,1311C 1308.22,1312.72 1292.72,1301.88 1286,1278.5C 1283.51,1250.75 1295.68,1233.75 1322.5,1227.5 Z M 1321.5,1236.5 C 1339.92,1236.77 1351.42,1245.77 1356,1263.5C 1358,1278.53 1352.83,1290.36 1340.5,1299C 1317.97,1307.32 1302.81,1300.15 1295,1277.5C 1292.34,1256.1 1301.18,1242.44 1321.5,1236.5 Z"/></g>
<g><path style="opacity:0.948" fill="#262527" d="M 366.5,1228.5 C 375.164,1227.5 383.164,1229.33 390.5,1234C 394.151,1236.98 396.818,1240.64 398.5,1245C 396.799,1246.91 394.633,1248.08 392,1248.5C 389.532,1246.36 387.365,1243.86 385.5,1241C 378.122,1237.23 370.455,1236.56 362.5,1239C 356.011,1242.14 354.177,1246.97 357,1253.5C 359.869,1256.7 363.035,1259.54 366.5,1262C 377.449,1266.05 386.949,1272.22 395,1280.5C 400.792,1295.15 395.958,1304.98 380.5,1310C 367.765,1313.23 356.932,1310.07 348,1300.5C 346.634,1298.63 345.467,1296.63 344.5,1294.5C 346.35,1292.43 348.683,1291.1 351.5,1290.5C 355.624,1298.57 362.291,1302.57 371.5,1302.5C 378.461,1302.58 383.961,1299.92 388,1294.5C 389.779,1287.55 387.279,1282.38 380.5,1279C 368.352,1274.18 357.852,1267.01 349,1257.5C 344.672,1247.65 346.839,1239.48 355.5,1233C 359.053,1230.88 362.72,1229.38 366.5,1228.5 Z"/></g>
<g><path style="opacity:0.932" fill="#262528" d="M 546.5,1227.5 C 565.005,1228.89 578.005,1237.89 585.5,1254.5C 582.102,1254.82 578.768,1254.49 575.5,1253.5C 566.397,1239.79 553.73,1234.62 537.5,1238C 515.334,1247.84 508.834,1264 518,1286.5C 530.275,1303.41 545.775,1307.24 564.5,1298C 568.5,1295.33 571.833,1292 574.5,1288C 577.882,1287.18 581.216,1287.34 584.5,1288.5C 572.281,1309.19 554.614,1316.02 531.5,1309C 507.915,1297.26 500.082,1278.76 508,1253.5C 515.968,1237.45 528.801,1228.78 546.5,1227.5 Z"/></g>
<g><path style="opacity:0.942" fill="#262528" d="M 1055.5,1227.5 C 1071.07,1228.04 1083.24,1234.7 1092,1247.5C 1093.41,1249.65 1094.24,1251.98 1094.5,1254.5C 1091.48,1254.66 1088.48,1254.5 1085.5,1254C 1073.36,1236.5 1057.69,1232.5 1038.5,1242C 1022.98,1254.27 1019.48,1269.44 1028,1287.5C 1037.02,1300.26 1049.18,1305.09 1064.5,1302C 1072.56,1299.97 1078.89,1295.47 1083.5,1288.5C 1086.77,1287.51 1090.1,1287.18 1093.5,1287.5C 1086.42,1303.23 1074.09,1311.23 1056.5,1311.5C 1036.49,1311 1022.99,1301.33 1016,1282.5C 1011.27,1251.09 1024.44,1232.76 1055.5,1227.5 Z"/></g>
<g><path style="opacity:0.953" fill="#262528" d="M 33.5,1229.5 C 36.5,1229.5 39.5,1229.5 42.5,1229.5C 42.3334,1248.84 42.5,1268.17 43,1287.5C 54.75,1268.33 66.75,1249.33 79,1230.5C 82.4553,1229.21 85.9553,1229.21 89.5,1230.5C 80.5,1244.5 71.5,1258.5 62.5,1272.5C 73.1667,1284.83 83.8333,1297.17 94.5,1309.5C 90.878,1310.66 87.2113,1310.83 83.5,1310C 75,1300.17 66.5,1290.33 58,1280.5C 50.1536,1292.2 42.3203,1303.87 34.5,1315.5C 33.5002,1286.84 33.1668,1258.17 33.5,1229.5 Z"/></g>
<g><path style="opacity:0.884" fill="#262528" d="M 129.5,1229.5 C 132.167,1229.5 134.833,1229.5 137.5,1229.5C 137.5,1241.5 137.5,1253.5 137.5,1265.5C 152.833,1265.5 168.167,1265.5 183.5,1265.5C 183.5,1253.5 183.5,1241.5 183.5,1229.5C 186.5,1229.5 189.5,1229.5 192.5,1229.5C 192.5,1256.5 192.5,1283.5 192.5,1310.5C 189.5,1310.5 186.5,1310.5 183.5,1310.5C 183.5,1298.5 183.5,1286.5 183.5,1274.5C 168.167,1274.5 152.833,1274.5 137.5,1274.5C 137.5,1286.5 137.5,1298.5 137.5,1310.5C 134.833,1310.5 132.167,1310.5 129.5,1310.5C 129.5,1283.5 129.5,1256.5 129.5,1229.5 Z"/></g>
<g><path style="opacity:0.869" fill="#262528" d="M 740.5,1229.5 C 743.5,1229.5 746.5,1229.5 749.5,1229.5C 749.5,1253.5 749.5,1277.5 749.5,1301.5C 764.167,1301.5 778.833,1301.5 793.5,1301.5C 793.5,1304.5 793.5,1307.5 793.5,1310.5C 775.833,1310.5 758.167,1310.5 740.5,1310.5C 740.5,1283.5 740.5,1256.5 740.5,1229.5 Z"/></g>
<g><path style="opacity:0.859" fill="#262528" d="M 833.5,1229.5 C 836.5,1229.5 839.5,1229.5 842.5,1229.5C 842.5,1253.5 842.5,1277.5 842.5,1301.5C 857.167,1301.5 871.833,1301.5 886.5,1301.5C 886.5,1304.5 886.5,1307.5 886.5,1310.5C 868.833,1310.5 851.167,1310.5 833.5,1310.5C 833.5,1283.5 833.5,1256.5 833.5,1229.5 Z"/></g>
<g><path style="opacity:0.911" fill="#262528" d="M 935.5,1273.5 C 934.506,1282.99 934.173,1292.65 934.5,1302.5C 935.791,1302.74 936.791,1302.4 937.5,1301.5C 951.167,1301.5 964.833,1301.5 978.5,1301.5C 978.5,1304.5 978.5,1307.5 978.5,1310.5C 961.167,1310.5 943.833,1310.5 926.5,1310.5C 926.5,1283.5 926.5,1256.5 926.5,1229.5C 943.833,1229.5 961.167,1229.5 978.5,1229.5C 978.5,1232.17 978.5,1234.83 978.5,1237.5C 964.167,1237.5 949.833,1237.5 935.5,1237.5C 935.5,1246.83 935.5,1256.17 935.5,1265.5C 947.5,1265.5 959.5,1265.5 971.5,1265.5C 971.5,1268.17 971.5,1270.83 971.5,1273.5C 959.5,1273.5 947.5,1273.5 935.5,1273.5 Z"/></g>
<g><path style="opacity:0.938" fill="#262528" d="M 1127.5,1229.5 C 1147.17,1229.5 1166.83,1229.5 1186.5,1229.5C 1186.5,1232.17 1186.5,1234.83 1186.5,1237.5C 1178.17,1237.5 1169.83,1237.5 1161.5,1237.5C 1161.5,1261.83 1161.5,1286.17 1161.5,1310.5C 1158.5,1310.5 1155.5,1310.5 1152.5,1310.5C 1152.5,1286.17 1152.5,1261.83 1152.5,1237.5C 1144.17,1237.5 1135.83,1237.5 1127.5,1237.5C 1127.5,1234.83 1127.5,1232.17 1127.5,1229.5 Z"/></g>
<g><path style="opacity:0.833" fill="#262628" d="M 1232.5,1229.5 C 1235.5,1229.5 1238.5,1229.5 1241.5,1229.5C 1241.5,1256.5 1241.5,1283.5 1241.5,1310.5C 1238.5,1310.5 1235.5,1310.5 1232.5,1310.5C 1232.5,1283.5 1232.5,1256.5 1232.5,1229.5 Z"/></g>
<g><path style="opacity:0.969" fill="#262528" d="M 1456.5,1290.5 C 1456.56,1291.04 1456.89,1291.38 1457.5,1291.5C 1458.5,1270.84 1458.83,1250.18 1458.5,1229.5C 1460.83,1229.5 1463.17,1229.5 1465.5,1229.5C 1465.83,1257.51 1465.5,1285.51 1464.5,1313.5C 1447.52,1292.02 1430.36,1270.69 1413,1249.5C 1412.5,1269.83 1412.33,1290.16 1412.5,1310.5C 1409.83,1310.5 1407.17,1310.5 1404.5,1310.5C 1404.64,1282.11 1404.47,1253.78 1404,1225.5C 1421.98,1246.79 1439.48,1268.46 1456.5,1290.5 Z"/></g>
<g><path style="opacity:0.843" fill="#212023" d="M 1458.5,1229.5 C 1458.83,1250.18 1458.5,1270.84 1457.5,1291.5C 1456.89,1291.38 1456.56,1291.04 1456.5,1290.5C 1457.17,1270.17 1457.83,1249.83 1458.5,1229.5 Z"/></g>
<g><path style="opacity:0.284" fill="#212128" d="M 935.5,1273.5 C 934.861,1283.23 935.528,1292.56 937.5,1301.5C 936.791,1302.4 935.791,1302.74 934.5,1302.5C 934.173,1292.65 934.506,1282.99 935.5,1273.5 Z"/></g>
</svg>
