<svg width="738" height="359" viewBox="0 0 738 359" fill="none" xmlns="http://www.w3.org/2000/svg">
<mask id="mask0" mask-type="alpha" maskUnits="userSpaceOnUse" x="0" y="0" width="738" height="359">
<rect width="738" height="358.996" fill="#C4C4C4"/>
</mask>
<g mask="url(#mask0)">
<path d="M708.863 123.4C676.727 118.783 649.798 129.803 626.143 150.801C610.67 164.651 599.958 181.925 591.775 200.838C583.741 219.602 574.963 238.069 572.434 258.769C569.458 283.34 576.6 304.189 593.709 321.911C603.38 331.889 614.984 339.186 627.482 344.547C660.362 358.843 695.027 360.928 730.288 356.61C734.751 356.014 739.363 355.418 743.975 354.822C746.504 353.631 749.48 353.631 752.307 353.482C753.051 353.035 754.092 352.738 754.836 352.589C784.443 346.185 806.016 328.612 822.53 304.04C822.828 303.445 823.274 302.998 823.572 302.7C824.167 300.913 824.911 299.275 826.101 297.786C832.052 285.128 836.367 271.725 838.598 257.577C841.425 240.749 839.788 224.368 834.432 208.433C824.018 176.862 802.594 155.12 773.284 140.674C765.846 136.951 757.96 133.824 749.777 130.25L724.931 125.038C720.022 124.591 714.368 124.144 708.863 123.4Z" fill="#C1BBA7"/>
<path d="M37.4888 194.305C20.1256 194.4 3.64781 189.687 -12.2185 182.476C-25.0192 176.757 -35.3423 168.203 -41.4833 155.347C-45.6996 146.463 -46.0425 136.645 -46.8551 127.011C-47.2848 121.895 -49.2304 116.53 -51.7998 112.007C-55.4275 105.395 -60.1358 99.41 -64.4427 93.3059C-72.8046 81.5033 -75.1534 68.1745 -73.9661 54.0998C-72.8602 40.4864 -68.2742 27.848 -62.2493 15.7867C-55.6603 2.68371 -43.1513 -0.949349 -30.0747 -3.70249C-20.1327 -5.82922 -10.7985 -3.53639 -1.61816 -0.585971C3.56123 1.10728 8.29609 4.24374 13.2575 6.52621C25.7251 12.3007 37.0179 19.5608 43.4236 32.4259C46.5902 38.9566 49.2827 45.8032 52.1118 52.5216C59.7373 70.6611 74.4849 77.6366 92.9151 79.3654C103.023 80.292 113.25 81.6201 123.259 83.5374C126.816 84.1837 130.385 86.487 133.083 89.093C136.554 92.387 139.939 96.2744 141.919 100.58C151.705 121.573 146.984 140.369 123.925 152.602C118.531 155.474 112.385 156.996 106.5 158.659C91.5227 162.808 77.762 168.255 67.3426 180.968C60.0931 189.941 50.7175 197.056 37.4888 194.305Z" fill="#6793C6"/>
<path d="M159.103 150.654L159.102 150.653C149.339 143.607 139.021 137.892 127.244 136.184C120.846 135.266 114.272 135.388 107.686 135.509C105.658 135.547 103.628 135.584 101.603 135.591C91.1514 135.758 80.7748 136.132 70.3058 136.51C69.5626 136.537 68.8189 136.563 68.0747 136.59C66.9034 136.648 65.741 136.687 64.5857 136.727C61.6313 136.827 58.7227 136.927 55.8267 137.322L55.8229 137.322C26.5307 141.093 -2.54811 146.137 -30.7998 154.915L-30.8001 154.915C-47.3373 160.044 -63.0287 166.856 -77.3683 176.772L-77.3795 176.779C-77.6425 176.951 -77.8728 177.154 -78.1337 177.384C-78.2031 177.445 -78.2745 177.508 -78.3494 177.573C-78.6898 177.869 -79.0841 178.186 -79.5798 178.397L-79.5871 178.4L-79.5945 178.403C-93.4421 183.791 -102.996 193.862 -111.126 206.091L-111.126 206.092C-119.95 219.286 -127.333 232.961 -131.396 248.368L-131.397 248.373C-133.599 256.446 -135.968 264.451 -138.337 272.457C-141.332 282.58 -144.327 292.705 -146.988 302.971L-147.472 302.846L-146.988 302.971C-153.983 329.933 -149.367 354.589 -131.994 376.896C-120.383 391.803 -104.78 398.596 -86.5323 399.586L-86.532 399.586C-71.8236 400.394 -58.3809 394.845 -45.6034 387.799L-45.601 387.798C-22.8851 375.435 -3.72883 358.559 14.7883 340.548C26.3833 329.233 38.5866 318.561 50.7666 308.01L50.7688 308.008C66.4387 294.59 85.3008 287.171 105.17 283.65C106.643 283.389 108.119 283.121 109.597 282.852C123.275 280.37 137.163 277.849 151.6 280.253C160.536 281.742 169.38 279.854 176.681 272.977L176.685 272.974C181.182 268.819 183.103 263.915 184.522 258.536C185.983 252.056 187.221 245.605 188.457 239.162C189.21 235.236 189.963 231.313 190.765 227.388C192.704 211.654 189.712 196.458 184.931 181.809C180.505 168.446 170.446 158.794 159.103 150.654Z" stroke="#1D1D1F"/>
<path d="M755 15.167L754.954 15.141C740.787 7.1305 727.414 11.8175 715.67 19.549L715.667 19.5509C698.641 30.5886 680.424 31.8064 661.374 31.0582C660.469 31.0274 659.563 30.9928 658.655 30.9582C652.018 30.7054 645.31 30.4498 638.891 31.6168L638.89 31.6169C623.248 34.4376 612.387 40.8497 605.873 49.9896C599.358 59.1322 597.137 71.0791 598.928 85.0742L598.928 85.0767C599.625 90.7492 602.093 96.4854 604.905 101.604L604.907 101.608C607.059 105.608 610.307 109.537 614.098 111.556L614.102 111.558C625.052 117.523 636.477 122.883 647.916 127.733L647.917 127.733C658.392 132.2 667.334 137.875 673.93 145.477C680.531 153.087 684.76 162.605 685.842 174.715C686.033 176.846 686.213 178.98 686.392 181.114C686.964 187.908 687.535 194.702 688.495 201.389C691.155 218.626 701.527 231.218 713.899 242.587C715.724 244.255 717.474 246.052 719.215 247.838C719.841 248.482 720.467 249.124 721.094 249.758C723.474 252.164 725.893 254.474 728.564 256.404C738.168 263.267 748.116 269.358 760.37 270.572L760.372 270.572C776.661 272.239 792.381 272.629 804.767 259.979C816.264 248.174 826.276 235.185 832.602 219.786L832.603 219.784C839.196 203.876 841.391 187.564 836.072 170.805L836.072 170.804C835.412 168.711 834.721 166.613 834.027 164.506C831.837 157.856 829.618 151.12 828.267 144.203C826.943 137.912 826.663 130.85 828.086 124.632M755 15.167L828.574 124.743M755 15.167L755.05 15.1828C775.259 21.5244 792.672 33.1296 808.469 47.4378L808.471 47.4399C821.213 58.8344 830 72.5711 832.36 89.7276M755 15.167L832.855 89.6598M828.086 124.632L828.574 124.743M828.086 124.632C828.086 124.632 828.086 124.632 828.086 124.632L828.574 124.743M828.086 124.632C828.375 123.367 828.671 122.104 828.966 120.842C831.38 110.532 833.783 100.269 832.36 89.7276M828.574 124.743C828.862 123.481 829.158 122.219 829.454 120.955C831.866 110.656 834.292 100.299 832.855 89.6598M832.36 89.7276C832.36 89.7277 832.36 89.7278 832.36 89.7279L832.855 89.6598M832.36 89.7276C832.36 89.7273 832.36 89.727 832.36 89.7267L832.855 89.6598" stroke="#1D1D1F"/>
<path d="M88.5214 119.599C85.3119 115.425 83.7356 110.755 82.0663 105.984C80.1914 100.543 78.748 95.004 78.0668 89.3602C77.5811 85.104 78.2278 80.7195 78.7557 76.3885C79.1009 73.6627 79.949 70.9965 80.8148 68.37C82.5644 63.1564 85.2461 58.4281 88.9352 54.2465C92.9096 49.7462 96.3298 44.543 101.513 41.3556C106.398 38.3501 111.632 35.806 116.93 33.6143C126.223 29.7214 135.899 30.7023 145.493 32.2433C151.034 33.1318 156.226 34.9387 161.223 37.6898C168.92 41.8927 174.378 48.1023 178.857 55.418C180.296 57.7701 181.594 60.2331 182.992 62.603C183.574 63.5791 183.334 64.2105 182.398 64.7744C175.702 68.8324 169.028 72.833 162.367 76.9701C156.705 80.4682 151.149 84.2039 145.433 87.5832C139.915 90.8735 134.326 94.0054 128.626 96.9968C123.581 99.6458 118.248 101.758 113.239 104.487C109.004 106.819 105.115 109.71 100.987 112.28C98.0942 114.105 95.0729 115.749 92.105 117.511C91.0102 118.147 89.8361 118.817 88.5214 119.599Z" fill="#1D1D1F"/>
</g>
</svg>
