<svg width="121" height="40" viewBox="0 0 121 40" fill="none" xmlns="http://www.w3.org/2000/svg">
<path d="M29.8711 28.9534C29.0606 28.872 28.2846 28.5751 27.6195 28.0921C26.9229 27.5858 26.4937 26.8654 26.0846 26.1449C25.8505 25.7291 25.7859 25.2114 25.6388 24.7418C25.3044 23.6388 25.2052 22.4922 25.1528 21.3526C25.081 19.4157 25.1555 17.4761 25.3757 15.5511C25.5228 14.1617 25.6967 12.7735 25.9197 11.3956C26.1783 9.7989 26.5138 8.21597 26.798 6.62386C26.9897 5.54948 27.1737 4.47279 27.3163 3.39039C27.4024 2.68883 27.4511 1.98299 27.4623 1.27598C27.47 1.0058 27.3913 0.740487 27.2383 0.520609C27.0853 0.300732 26.8665 0.138396 26.6152 0.0584227C26.1493 -0.0984971 25.69 0.05842 25.3345 0.556669C24.9532 1.08584 24.5843 1.62648 24.2387 2.17971C23.4841 3.3881 22.734 4.59878 22.0094 5.82436C21.5357 6.62614 21.0954 7.44625 20.6651 8.27093C20.2193 9.11624 19.8158 9.97988 19.3855 10.8309C19.0511 11.4838 18.6989 12.1241 18.3767 12.7781C17.9376 13.6715 17.5099 14.5703 17.0938 15.4744C16.4573 16.8488 15.8442 18.2313 15.1988 19.5978C14.6995 20.6573 14.1767 21.7042 13.6439 22.7465C13.421 23.1714 13.1534 23.5678 12.8636 24.042C12.8336 23.9505 12.8108 23.8566 12.7956 23.7613C12.7733 22.8931 12.7098 22.0215 12.7488 21.1567C12.7923 20.1693 12.926 19.1866 13.0275 18.2016C13.1256 17.244 13.2504 16.2887 13.3296 15.33C13.4511 13.896 13.6104 12.4597 13.6283 11.0233C13.6428 9.88824 13.6818 8.68672 12.6819 7.83569C12.4222 7.61348 12.1547 7.47145 11.8103 7.49207C11.1025 7.54819 10.602 7.97429 10.1806 8.49774C9.70301 9.07392 9.26146 9.68067 8.85865 10.3143C8.18093 11.4139 7.55449 12.5479 6.91467 13.6726C6.75416 13.9556 6.62152 14.2568 6.47661 14.55L6.39301 14.5179C6.51897 14.0094 6.65496 13.5043 6.76754 12.9946C7.05512 11.7026 7.36388 10.414 7.60687 9.11281C7.90672 7.50925 8.16421 5.89882 8.41166 4.28724C8.52711 3.56662 8.60487 2.84016 8.64462 2.11098C8.64867 1.73858 8.58906 1.36834 8.46851 1.01712C8.38268 0.742226 8.08618 0.715885 7.89558 0.934656C7.81378 1.03437 7.75508 1.15186 7.72391 1.27828C7.59127 1.796 7.47535 2.31715 7.3505 2.83602C6.92805 4.60795 6.50893 6.38676 6.0809 8.15067C5.63504 9.96957 5.20589 11.7908 4.74331 13.6028C4.36544 15.0815 3.94633 16.5499 3.54728 18.0229C3.16383 19.4386 2.78708 20.8566 2.39806 22.27C2.14615 23.1863 1.85968 24.0912 1.6178 25.011C1.16302 26.7711 0.723466 28.5354 0.299151 30.3039C0.148672 30.9361 -0.0820616 31.5638 0.0294046 32.2419C0.0474765 32.4142 0.117616 32.5763 0.229974 32.7055C0.342333 32.8347 0.491263 32.9245 0.655844 32.9623C1.07161 33.0654 1.37146 32.9623 1.54757 32.5866C1.7416 32.1813 1.90193 31.7598 2.02688 31.3267C2.37577 30.1137 2.66781 28.8836 3.03676 27.6775C3.55508 25.9857 4.0968 24.2997 4.67977 22.6297C5.0621 21.5358 5.52692 20.4706 5.97055 19.3985C6.36403 18.4478 6.75639 17.4937 7.18999 16.5613C7.59461 15.6943 8.04605 14.8501 8.48746 14.0014C9.10498 12.8124 9.73477 11.6281 10.5017 10.5308C10.8138 10.0841 11.1303 9.63282 11.6241 9.31326C11.6598 9.40454 11.6863 9.49934 11.7033 9.59617C11.7267 10.091 11.7891 10.5915 11.749 11.0852C11.6475 12.336 11.506 13.5833 11.3655 14.8306C11.1939 16.3575 10.9787 17.8797 10.8372 19.4122C10.7424 20.4431 10.7257 21.4923 10.7045 22.5335C10.6691 23.4145 10.7765 24.2955 11.0222 25.1404C11.2786 25.9582 11.9206 26.4908 12.6942 26.4484C12.9227 26.4356 13.1457 26.3717 13.3477 26.2611C13.5497 26.1505 13.7257 25.9959 13.8635 25.8082C14.3284 25.197 14.7569 24.5575 15.1464 23.893C15.5399 23.2173 15.8788 22.5048 16.2143 21.7958C16.6602 20.8474 17.0882 19.8864 17.5207 18.9323C18.049 17.7663 18.5584 16.59 19.1046 15.432C19.7656 14.03 20.4534 12.6418 21.1366 11.2501C21.6081 10.2926 22.0752 9.33272 22.5757 8.38662C23.0059 7.58484 23.4797 6.79566 23.9333 6.00076L24.8552 4.38116L24.9666 4.42813C24.9187 4.63659 24.8652 4.84505 24.8239 5.0558C24.6155 6.1279 24.397 7.1977 24.2075 8.27323C23.8419 10.3475 23.454 12.4184 23.1497 14.5019C22.9538 15.8453 22.838 17.1998 22.8031 18.5578C22.7629 20.0915 22.8231 21.6297 22.9145 23.1611C22.9983 24.4795 23.3148 25.7712 23.8486 26.973C24.2945 28.0039 24.9566 28.8824 25.9888 29.3612C27.2249 29.9339 28.4733 29.9808 29.6984 29.2925L29.9146 29.1779C29.9426 29.171 29.9669 29.1532 29.9824 29.1283C29.9979 29.1034 30.0035 29.0732 29.9979 29.0442C29.9922 29.0152 29.9759 28.9895 29.9523 28.9726C29.9287 28.9557 29.8996 28.9488 29.8711 28.9534Z" fill="#1D1D1F"/>
<path d="M120.913 19.4833C120.794 19.399 120.655 19.3484 120.51 19.3371C120.365 19.3257 120.22 19.3541 120.09 19.419C119.812 19.551 119.536 19.6854 119.257 19.8141C118.679 20.0794 118.101 20.3355 117.53 20.6043C116.93 20.8857 116.338 21.1785 115.737 21.4622C115.493 21.5771 115.233 21.6529 114.921 21.7689C114.927 21.6607 114.939 21.553 114.957 21.4461C115.243 20.2425 115.295 19.0537 114.725 17.9075C114.291 17.0346 113.552 16.5396 112.634 16.69C111.67 16.8474 111 17.4492 110.524 18.2876C110.188 18.878 110.087 19.5028 110.004 20.1713C109.844 21.445 110.628 22.9542 111.804 23.4722C111.987 23.5537 112.151 23.6663 112.33 23.7639C112.159 24.0476 111.721 24.3956 111.235 24.6023C110.31 24.9974 109.805 24.7356 109.417 23.8661C108.909 22.7313 109.116 21.5265 109.292 20.3631C109.363 19.8922 109.123 19.5798 109.024 19.2019C108.962 18.9722 108.656 18.9193 108.446 18.9975C108.281 19.0791 108.149 19.214 108.072 19.3799C107.937 19.6487 107.891 19.9645 107.744 20.2264C107.427 20.7938 107.031 21.3187 106.739 21.8975C105.735 23.9135 104.579 25.8509 103.28 27.6931C102.693 28.5154 101.937 29.2195 101.241 29.9626C101.058 30.1578 100.826 30.3829 100.523 30.2819C100.22 30.1808 100.207 29.8477 100.163 29.5847C99.9426 28.2478 99.9889 26.9006 100.073 25.5579C100.126 24.7023 100.227 23.8523 100.348 23.0047C100.464 22.1858 100.501 21.3497 100.877 20.579C101.192 19.9301 101.523 19.2892 101.81 18.6265C102.714 16.5442 103.528 14.4251 104.353 12.3095C104.569 11.7536 104.739 11.1793 104.95 10.6211C104.994 10.5063 105.113 10.3386 105.212 10.3271C106.04 10.2295 106.874 10.1789 107.702 10.0836C108.728 9.96875 109.751 9.8229 110.774 9.67933C111.531 9.51624 111.459 9.39219 111.345 9.36233C109.413 9.07634 107.454 9.24747 105.47 9.09471C105.64 8.5503 105.817 8.03461 105.96 7.50858C106.298 6.26126 106.636 5.01394 106.94 3.75859C107.06 3.22508 107.142 2.68396 107.185 2.13915C107.227 1.69581 107.019 1.38914 106.662 1.28462C106.502 1.24146 106.332 1.24494 106.174 1.29462C106.016 1.3443 105.875 1.43811 105.769 1.56488C105.517 1.82918 105.292 2.11774 105.098 2.42628C104.612 3.29343 104.144 4.17092 103.71 5.06793C103.332 5.85238 103.01 6.6644 102.67 7.46724C102.476 7.92665 102.307 8.39296 102.104 8.84549C102.077 8.89872 102.037 8.94506 101.989 8.98105C101.941 9.01704 101.885 9.04176 101.826 9.05336C101.286 9.08476 100.747 9.09854 100.207 9.09471C99.2698 9.09471 98.3322 9.06716 97.3935 9.04878C97.2559 9.04878 97.1172 9.0258 96.9449 9.01087C96.971 8.91181 97.0031 8.81439 97.0409 8.71914C97.3403 8.06217 97.6513 7.4098 97.8998 6.73102C98.4108 5.33439 98.8906 3.92283 99.316 2.49864C99.4627 1.96073 99.5404 1.40658 99.5473 0.849336C99.5478 0.673863 99.4921 0.502773 99.3881 0.360897C99.2842 0.21902 99.1375 0.113734 98.9692 0.0602877C98.8078 -0.00778097 98.6278 -0.0185676 98.4594 0.0297515C98.2909 0.0780707 98.1444 0.182541 98.0444 0.325594C97.8131 0.617323 97.5542 0.887235 97.3507 1.1916C96.9253 1.81641 96.501 2.44466 96.1241 3.09818C95.7472 3.7517 95.4224 4.40177 95.1149 5.07366C94.5495 6.30145 94.0062 7.54074 93.4732 8.78231C93.4484 8.87412 93.3892 8.95305 93.3078 9.00299C93.2264 9.05293 93.1288 9.07012 93.0351 9.05107C92.6548 9.02082 92.2729 9.0147 91.8917 9.0327C90.042 9.14066 88.2004 9.24977 86.3588 9.40023C86.0455 9.4255 85.7403 9.62993 85.4478 9.78614C85.2709 9.87917 85.2628 10.025 85.4154 10.1847C85.7934 10.5821 86.2825 10.7038 86.8027 10.7589C87.3229 10.8141 87.8189 10.8577 88.3287 10.8899C89.2062 10.9462 90.0848 11.0047 90.9634 11.0357C91.501 11.0564 92.0409 11.0357 92.6224 11.0357C92.5807 11.2023 92.5576 11.308 92.5264 11.4125C92.1079 12.8045 91.679 14.1931 91.2755 15.5886C91.1264 16.1077 91.0443 16.6418 90.7148 17.0955C90.5784 17.2861 90.4605 17.4894 90.3299 17.6835C89.8975 18.3313 89.4871 18.9951 89.0247 19.6211C88.457 20.3895 87.8501 21.1303 87.2524 21.8768C86.5417 22.7599 85.6964 23.5272 84.7472 24.151C84.3541 24.4117 83.9714 24.2807 83.8894 23.8064C83.7977 23.1752 83.7402 22.5395 83.7171 21.9021C83.6928 21.5208 83.7171 21.1337 83.6871 20.7536C83.6651 20.5239 83.109 20.1265 82.8882 20.1793C82.734 20.2157 82.5886 20.2823 82.4606 20.3752C82.3325 20.4681 82.2244 20.5854 82.1425 20.7203C81.7564 21.3531 81.3957 22.0055 80.9564 22.6004C80.4813 23.2459 79.983 23.8868 79.3136 24.3588C79.1652 24.4463 79.0107 24.5231 78.8512 24.5885C78.8188 24.3933 78.7356 24.1923 78.7622 24.0039C78.9934 22.1548 79.8362 20.6284 81.3125 19.4718C81.7587 19.1272 82.2443 18.8252 82.8871 18.94C83.3079 19.0147 83.4767 18.7838 83.2917 18.3887C83.1585 18.143 82.9538 17.9429 82.7044 17.8144C82.2073 17.5847 81.694 17.6996 81.2015 17.9132C80.6697 18.1521 80.1367 18.3899 79.613 18.6448C78.6732 19.1043 77.7518 19.5958 76.8038 20.0334C75.3945 20.6824 74.2766 21.4852 70.7668 22.4672C70.2566 22.603 69.76 22.7852 69.2835 23.0116L69.6303 21.8309C69.6918 21.6767 69.7693 21.5292 69.8616 21.391C70.2546 20.8167 70.7101 20.2941 71.0997 19.7222C71.8546 18.615 72.6026 17.502 73.324 16.3742C73.7494 15.7103 74.1425 15.0258 74.5148 14.3298C75.1714 13.0985 75.8593 11.8811 76.4674 10.6257C76.8836 9.76777 77.2292 8.8742 77.5807 7.98408C78.035 6.83554 78.4188 5.66632 78.4327 4.4236C78.4394 3.96209 78.3615 3.50322 78.2026 3.06946C77.9483 2.40561 76.9876 2.21035 76.4685 2.7249C75.9547 3.24396 75.4928 3.81132 75.0893 4.419C74.6223 5.13326 74.1917 5.8704 73.7992 6.62764C73.1194 7.90138 72.4442 9.17856 71.8153 10.4776C71.2928 11.556 70.8119 12.6598 70.3598 13.7693C69.9506 14.7743 69.5852 15.7988 69.2361 16.8267C68.791 18.1326 67.9286 20.8466 67.9251 20.8523C67.7598 21.3749 67.7563 21.4128 67.3136 21.8401C66.5448 22.5821 65.8234 23.3745 64.9078 23.9431C64.1748 24.4025 63.9228 24.2463 63.6627 23.6146C63.3355 22.8221 63.465 21.986 63.4638 21.1739C63.4638 20.4538 63.6488 19.7348 63.739 19.0135C63.791 18.5897 63.5575 18.2095 63.2326 18.1096C62.9436 18.0235 62.4326 18.3256 62.2904 18.5955C61.9875 19.1697 61.7124 19.7658 61.3656 20.3114C60.6349 21.4492 59.8781 22.5713 59.095 23.6778C58.7971 24.0769 58.4594 24.4452 58.0869 24.7769C57.754 25.0882 57.5829 25.025 57.5089 24.5725C57.4254 24.1846 57.3897 23.7882 57.4025 23.3918C57.4953 22.3178 57.7361 21.2617 58.1181 20.2528C58.3378 19.6533 58.5806 19.0629 58.7968 18.4611C58.9124 18.128 58.8106 17.7628 58.6106 17.6261C58.2892 17.4056 57.9864 17.4079 57.6418 17.6422C57.5354 17.7037 57.4413 17.7843 57.3644 17.8799C57.0777 18.3106 56.8095 18.7517 56.5297 19.1869C56.4046 19.4073 56.2599 19.616 56.0973 19.8106C55.6499 20.285 55.1725 20.7295 54.7216 21.2049C54.0154 21.9581 53.1845 22.5855 52.2649 23.0598C51.8545 23.2746 51.5967 23.2252 51.3262 22.8554C51.0775 22.5476 50.8714 22.208 50.7135 21.8458C50.3759 20.9569 50.0904 20.0461 49.7886 19.1422C49.6002 18.5679 49.0337 18.0798 48.4765 18.066C48.0629 18.0519 47.6599 18.1981 47.3528 18.4737C46.3713 19.3305 45.5585 20.3332 44.7932 21.3772C44.7192 21.4783 44.6279 21.5679 44.5435 21.6621C44.5666 21.1797 44.6591 20.7329 44.7204 20.2838C44.8036 19.62 44.8788 18.9526 44.9169 18.2842C44.9377 17.927 44.6059 17.5457 44.2915 17.4653C43.9944 17.3883 43.6186 17.556 43.4048 17.8569C43.2785 18.042 43.1415 18.2196 42.9944 18.3887C42.1724 19.3076 41.3574 20.2264 40.5111 21.1188C39.8313 21.8366 39.1238 22.5269 38.4059 23.2103C38.179 23.4003 37.9343 23.5684 37.6753 23.7122C37.4683 23.8443 37.2926 23.8271 37.2568 23.5468C37.2094 23.1667 37.1273 22.7773 37.162 22.3983C37.2325 21.6311 37.3932 20.8719 37.4695 20.1012C37.4989 19.8224 37.4403 19.5415 37.3018 19.2972C37.0602 18.9125 36.2521 18.9044 35.9747 19.4626C35.8105 19.7911 35.6718 20.1402 35.4591 20.4343C34.7955 21.3531 34.1138 22.2562 33.414 23.1437C33.1157 23.5216 32.77 23.8719 32.2579 24.0798C32.2336 23.9396 32.207 23.834 32.1978 23.7283C32.1469 23.1 32.3677 22.5327 32.6128 21.9791C32.9338 21.2532 33.3625 20.5792 33.8845 19.9794C34.3654 19.4316 34.8868 18.9216 35.5643 18.615C35.9042 18.4611 36.051 18.2934 36.0267 18.012C35.999 17.7501 35.7227 17.4997 35.4487 17.409C34.7192 17.1644 34.1169 17.5239 33.5804 17.8776C33.0024 18.2624 32.5064 18.7964 32.0012 19.2857C31.0868 20.1758 30.5215 21.2796 30.1758 22.4867C29.9365 23.3206 29.9088 24.1705 30.2995 24.9871C30.7122 25.8519 31.6625 26.3653 32.5897 26.1356C33.2672 25.9679 33.8024 25.5717 34.244 25.0491C34.5828 24.6483 34.8995 24.2302 35.2128 23.8363C35.3907 24.1268 35.5528 24.4266 35.6984 24.7344C36.0094 25.4833 37.0718 25.8267 37.8163 25.6372C38.5042 25.4609 39.1261 25.0907 39.6071 24.5713C40.4799 23.6444 41.2984 22.667 42.1389 21.7103C42.2186 21.6196 42.2961 21.5277 42.4291 21.3738C42.3655 21.7723 42.3134 22.0721 42.2718 22.3719C42.1169 23.4653 41.9666 24.561 41.8094 25.6544C41.7261 26.2287 42.0406 26.618 42.4291 26.9683C42.4606 27.0047 42.5002 27.0334 42.5447 27.0522C42.7887 27.1039 43.0434 27.0605 43.2562 26.9309C43.469 26.8014 43.6235 26.5957 43.688 26.3562C43.7705 25.9678 43.8747 25.5844 44.0002 25.2076C44.4598 24.053 45.0679 22.9624 45.8094 21.963C46.4323 21.0862 47.1854 20.3082 48.0429 19.6556C48.1435 20.1747 48.221 20.6399 48.325 21.0993C48.4522 21.6632 48.5562 22.2386 48.7551 22.7773C49.0167 23.5077 49.4649 24.158 50.0557 24.6644C50.8152 25.3121 52.0071 25.5418 52.8626 25.0503C53.5493 24.6563 54.1794 24.1624 54.828 23.7088C54.9655 23.6134 55.0881 23.4963 55.2661 23.3493C55.2661 23.5238 55.2661 23.633 55.2661 23.7421C55.2996 24.6965 55.4881 25.5947 56.2071 26.3045C56.4051 26.5122 56.6518 26.668 56.9252 26.7578C57.1985 26.8476 57.4901 26.8686 57.7736 26.819C58.2947 26.7335 58.7641 26.4558 59.0881 26.0415C59.6222 25.3615 60.1182 24.6529 60.6083 23.9419C60.8719 23.5606 61.0881 23.1471 61.3401 22.7233C61.443 23.2861 61.5043 23.7915 61.6326 24.2796C61.7106 24.6129 61.8567 24.9268 62.0617 25.2018C62.2667 25.4768 62.5263 25.707 62.8245 25.8784C63.9355 26.5124 64.9656 26.2723 65.9459 25.5637C66.2269 25.3592 66.4985 25.1399 66.7956 24.9113C66.3517 26.726 65.9159 28.7669 65.6199 30.7539C64.9517 35.2597 65.213 37.9507 66.443 39.2233C66.6815 39.4734 66.9697 39.6716 67.2893 39.8052C67.6089 39.9389 67.953 40.0051 68.2997 39.9997C68.5912 39.9973 68.8814 39.9587 69.1633 39.8848C71.7367 39.2405 73.6049 35.8121 74.2882 34.3718C75.6061 31.5889 76.2997 28.4729 76.0986 26.239C75.9587 24.685 75.3841 23.533 74.4674 22.8772C75.5552 22.373 76.4246 21.9584 76.7194 21.7976C77.0142 21.6368 77.346 21.4473 77.7206 21.2382C77.531 21.6977 77.3599 22.0572 77.2246 22.4362C76.9159 23.2964 76.7945 24.182 77.0558 25.0778C77.1343 25.3467 77.2742 25.5939 77.4645 25.8004C77.6548 26.0068 77.8904 26.1669 78.1531 26.2682C78.4158 26.3696 78.6984 26.4094 78.9791 26.3846C79.2597 26.3598 79.5309 26.2711 79.7714 26.1253C80.3055 25.7922 80.7657 25.3213 81.2131 24.8768C81.5345 24.5529 81.7749 24.1487 82.0963 23.7203C82.153 23.9155 82.1899 24.0292 82.2188 24.1441C82.4385 25.0135 82.9125 25.659 83.8269 25.8864C84.657 26.092 85.3796 25.7819 86.0235 25.3225C87.2836 24.4174 88.3241 23.2838 89.2605 22.056C89.5172 21.7206 89.783 21.3922 90.0698 21.0304C90.0761 21.0722 90.0792 21.1144 90.079 21.1567C89.9091 22.6693 89.7171 24.1797 89.575 25.6957C89.4686 26.8443 89.5391 27.9928 89.6489 29.1322C89.7414 30.1027 89.9507 31.0365 90.4339 31.8887C90.6136 32.2473 90.908 32.5365 91.2709 32.711C92.0547 33.0556 92.7877 32.8937 93.4362 32.4113C94.1517 31.8806 94.7679 31.2295 95.2571 30.4875C95.6571 29.8787 96.0802 29.2849 96.4698 28.6693C97.0212 27.7953 97.5507 26.9075 98.0883 26.0277C98.1298 25.9737 98.1754 25.9231 98.2247 25.8761C98.2386 25.9967 98.2513 26.0644 98.2548 26.1322C98.2906 27.0683 98.3103 28.0043 98.3646 28.9392C98.4224 29.9178 98.7114 30.8091 99.4201 31.5395C100.229 32.3619 101.049 32.5135 102.003 31.8738C102.474 31.5366 102.907 31.1483 103.292 30.716C104.459 29.479 105.373 28.0491 106.24 26.5973C106.677 25.8657 107.087 25.118 107.511 24.3761C107.562 24.2865 107.617 24.1992 107.668 24.1142C107.899 24.5047 108.089 24.8814 108.33 25.2248C109.101 26.3228 110.509 26.5675 111.668 26.0288C112.524 25.6314 113.136 24.9733 113.683 24.2405C113.81 24.0706 113.929 23.9442 114.174 23.9408C114.42 23.9248 114.664 23.8808 114.9 23.8098C115.836 23.5801 116.664 23.1207 117.475 22.6131C118.631 21.8906 119.787 21.167 120.671 20.1138C120.77 19.999 120.866 19.8749 120.962 19.7555C120.978 19.7347 120.989 19.7109 120.995 19.6856C121.001 19.6604 121.002 19.6342 120.997 19.6087C120.992 19.5832 120.982 19.5589 120.968 19.5373C120.953 19.5157 120.935 19.4973 120.913 19.4833ZM105.818 3.58286L105.907 3.60699C105.744 4.35584 105.631 5.11846 105.407 5.84893C105.099 6.86194 104.714 7.85084 104.35 8.84892C104.25 9.12457 104.135 9.15788 103.639 9.04188C104.268 7.17895 104.939 5.34128 105.818 3.58286ZM102.531 12.808C102.71 12.1521 102.917 11.5021 103.084 10.8439C103.169 10.5109 103.354 10.4213 103.758 10.5063C103.295 11.6192 102.84 12.6965 102.388 13.7739L102.315 13.7486C102.387 13.4351 102.447 13.1181 102.531 12.808ZM76.8662 4.53845L76.9888 4.5752C76.949 4.94355 76.8903 5.30965 76.813 5.67206C76.3506 7.43508 75.5703 9.07289 74.7726 10.7015C74.3633 11.5365 73.9286 12.3623 73.4662 13.1697C72.7263 14.4653 71.9529 15.7425 71.1922 17.0265C71.1652 17.0683 71.1243 17.0992 71.0766 17.1138C72.5587 12.7172 74.3968 8.4791 76.8628 4.5327L76.8662 4.53845ZM68.6928 38.0529C68.1009 38.2011 67.9159 38.0093 67.8269 37.9174C66.7297 36.7826 67.065 32.0058 68.5829 25.682C69.4303 25.0296 71.0697 24.0832 72.5645 24.1889C72.9113 24.213 73.9911 24.2853 74.183 26.4285C74.5529 30.5414 71.3194 37.3891 68.6893 38.0472L68.6928 38.0529ZM97.8259 3.25208L97.9137 3.27736C97.8293 3.56449 97.7565 3.85163 97.6571 4.13761C97.3103 5.12995 96.9634 6.12803 96.5819 7.10544C96.4062 7.55108 95.7368 8.77543 95.7368 8.77543C95.7368 8.77543 95.5357 9.03384 95.2744 8.98675C96.0409 7.00093 96.827 5.07596 97.8224 3.24059L97.8259 3.25208ZM98.8143 20.9396C98.723 21.3129 98.4952 21.6598 98.2999 22.0009C97.7079 23.033 97.1083 24.0602 96.501 25.0824C95.997 25.93 95.5033 26.7857 94.9553 27.6092C94.6028 28.105 94.2166 28.5763 93.7993 29.0196C93.4117 29.4752 92.9966 29.9071 92.5565 30.3129C92.0559 30.7562 91.8848 30.6781 91.7044 30.0246C91.3573 28.7437 91.2464 27.411 91.3773 26.0908C91.5172 24.5977 91.6871 23.0966 91.9299 21.6115C92.1727 20.1265 92.4813 18.6827 92.8374 17.2367C92.953 16.752 93.3125 16.3259 93.5542 15.87C94.1322 14.7926 94.7021 13.7164 95.2628 12.6322C95.5149 12.1452 95.7253 11.6376 95.975 11.1506C96.0082 11.0921 96.0537 11.0413 96.1083 11.0017C96.163 10.9621 96.2255 10.9345 96.2917 10.9209C97.1877 10.8474 98.0848 10.7934 98.9819 10.744C99.7484 10.7027 100.516 10.674 101.284 10.6407C101.349 10.6405 101.415 10.6444 101.48 10.6521C101.281 11.3137 101.087 11.9546 100.895 12.5955C100.689 13.2846 100.477 13.9737 100.285 14.672C100.093 15.3704 99.9114 16.0434 99.753 16.7394C99.4317 18.1154 99.1507 19.5258 98.8108 20.9224L98.8143 20.9396ZM113.831 21.7436C113.803 21.8189 113.751 21.8828 113.682 21.9246C113.613 21.9663 113.532 21.9835 113.453 21.9733C112.44 21.9584 111.574 21.0798 111.553 20.0713C111.533 19.7008 111.59 19.3302 111.721 18.9826C111.852 18.635 112.053 18.3179 112.313 18.051C112.842 17.4986 113.462 17.5445 113.871 18.1843C114.087 18.5219 114.266 19.2329 114.259 19.7348C114.257 20.4206 114.109 21.0982 113.827 21.7241L113.831 21.7436Z" fill="#1D1D1F"/>
</svg>
