<svg width="205" height="68" viewBox="0 0 205 68" fill="none" xmlns="http://www.w3.org/2000/svg">
<path d="M51.8269 48.8866C50.4205 48.749 49.0742 48.2478 47.9203 47.4322C46.7116 46.5774 45.967 45.3609 45.2572 44.1445C44.8511 43.4425 44.7389 42.5683 44.4837 41.7754C43.9035 39.913 43.7313 37.9771 43.6404 36.0528C43.5159 32.7826 43.6452 29.5076 44.0272 26.2573C44.2825 23.9114 44.5842 21.5675 44.971 19.2409C45.4197 16.545 46.0018 13.8723 46.495 11.1841C46.8276 9.37004 47.1467 7.5521 47.3943 5.72451C47.5435 4.53998 47.6281 3.34819 47.6476 2.15444C47.6609 1.69825 47.5243 1.25028 47.2589 0.879026C46.9935 0.507773 46.6137 0.233675 46.1778 0.0986441C45.3694 -0.166308 44.5726 0.0986394 43.9557 0.93991C43.2943 1.8334 42.6541 2.74623 42.0546 3.68033C40.7453 5.72066 39.4438 7.76484 38.1867 9.83417C37.3648 11.1879 36.6008 12.5726 35.8543 13.9651C35.0808 15.3924 34.3807 16.8506 33.6342 18.2875C33.054 19.3899 32.4428 20.4709 31.8839 21.5752C31.1219 23.0837 30.38 24.6012 29.658 26.1278C28.5537 28.4485 27.49 30.7828 26.3702 33.09C25.5038 34.8789 24.5968 36.6465 23.6724 38.4064C23.2856 39.1239 22.8214 39.7931 22.3186 40.5938C22.2665 40.4393 22.227 40.2808 22.2006 40.1199C22.1619 38.654 22.0517 37.1822 22.1194 35.7221C22.1948 34.055 22.4269 32.3957 22.6029 30.7325C22.7731 29.1157 22.9897 27.5028 23.127 25.8841C23.3378 23.4628 23.6143 21.0376 23.6453 18.6124C23.6704 16.6958 23.7381 14.6671 22.0034 13.2302C21.5527 12.855 21.0886 12.6152 20.491 12.65C19.2629 12.7448 18.3946 13.4642 17.6636 14.348C16.8349 15.3209 16.0688 16.3454 15.3699 17.4153C14.194 19.2719 13.1072 21.1865 11.9971 23.0856C11.7186 23.5633 11.4884 24.072 11.237 24.5671L11.092 24.5129C11.3105 23.6542 11.5465 22.8014 11.7418 21.9408C12.2407 19.7593 12.7764 17.5835 13.198 15.3866C13.7183 12.679 14.165 9.95989 14.5944 7.23882C14.7947 6.02208 14.9296 4.79548 14.9986 3.5643C15.0056 2.93552 14.9022 2.31038 14.693 1.71736C14.5441 1.25321 14.0297 1.20874 13.6989 1.57813C13.557 1.74648 13.4552 1.94486 13.4011 2.15831C13.171 3.03246 12.9698 3.9124 12.7532 4.78849C12.0203 7.78032 11.2931 10.7838 10.5505 13.762C9.77688 16.8332 9.0323 19.9082 8.22971 22.9677C7.5741 25.4644 6.84694 27.9437 6.15458 30.4308C5.4893 32.8212 4.83562 35.2154 4.16067 37.6019C3.7236 39.1491 3.22657 40.6769 2.8069 42.2299C2.01785 45.2017 1.25522 48.1807 0.519031 51.1667C0.257947 52.2342 -0.142378 53.294 0.0510174 54.4389C0.0823724 54.7298 0.204066 55.0036 0.399009 55.2218C0.593952 55.44 0.85235 55.5916 1.1379 55.6554C1.85927 55.8295 2.3795 55.6554 2.68506 55.0211C3.0217 54.3366 3.29989 53.625 3.51666 52.8937C4.12199 50.8456 4.62869 48.7686 5.26883 46.7321C6.16812 43.8757 7.10802 41.0289 8.11948 38.2092C8.78282 36.3623 9.58928 34.5637 10.359 32.7535C11.0417 31.1483 11.7224 29.5373 12.4747 27.9631C13.1768 26.4991 13.96 25.0737 14.7259 23.6407C15.7973 21.6332 16.89 19.6335 18.2205 17.7808C18.762 17.0266 19.3113 16.2646 20.168 15.725C20.23 15.8791 20.276 16.0392 20.3053 16.2027C20.3459 17.0382 20.4543 17.8833 20.3846 18.7168C20.2086 20.8287 19.963 22.9348 19.7194 25.0409C19.4215 27.6188 19.0483 30.1891 18.8027 32.7767C18.6383 34.5173 18.6093 36.2888 18.5725 38.0467C18.5111 39.5344 18.6974 41.0218 19.1237 42.4484C19.5685 43.8293 20.6825 44.7285 22.0246 44.657C22.4211 44.6354 22.8081 44.5274 23.1585 44.3407C23.5089 44.1539 23.8143 43.893 24.0533 43.5759C24.86 42.5441 25.6034 41.4642 26.2793 40.3423C26.962 39.2013 27.5499 37.9984 28.1321 36.8013C28.9056 35.2 29.6483 33.5774 30.3986 31.9664C31.3153 29.9976 32.1992 28.0114 33.1468 26.0562C34.2936 23.689 35.4869 21.3451 36.6724 18.9953C37.4905 17.3785 38.3008 15.7579 39.1691 14.1604C39.9157 12.8067 40.7376 11.4742 41.5247 10.132L43.1241 7.39739L43.3175 7.47669C43.2343 7.82867 43.1415 8.18065 43.0699 8.53649C42.7083 10.3467 42.3292 12.153 42.0004 13.969C41.3661 17.4714 40.6931 20.968 40.1651 24.4858C39.8251 26.7541 39.6243 29.0411 39.5637 31.334C39.494 33.9235 39.5985 36.5208 39.7571 39.1065C39.9023 41.3325 40.4515 43.5134 41.3777 45.5427C42.1513 47.2833 43.3001 48.7666 45.0909 49.575C47.2357 50.542 49.4017 50.6213 51.5271 49.459L51.9023 49.2656C51.9509 49.2539 51.9931 49.2239 52.02 49.1818C52.0469 49.1397 52.0565 49.0888 52.0467 49.0398C52.037 48.9908 52.0087 48.9475 51.9677 48.9189C51.9267 48.8903 51.8762 48.8788 51.8269 48.8866Z" fill="#EBE9DF"/>
<path d="M204.135 32.8066C203.937 32.6647 203.704 32.5795 203.462 32.5605C203.219 32.5414 202.976 32.5891 202.758 32.6983C202.294 32.9207 201.832 33.147 201.366 33.3636C200.399 33.8104 199.432 34.2416 198.476 34.6942C197.473 35.168 196.482 35.6612 195.477 36.1388C195.069 36.3322 194.633 36.4599 194.111 36.6552C194.122 36.4731 194.142 36.2917 194.171 36.1118C194.651 34.085 194.738 32.0833 193.785 30.1532C193.057 28.6834 191.822 27.8499 190.286 28.1032C188.673 28.3682 187.553 29.3816 186.757 30.7934C186.194 31.7874 186.025 32.8395 185.886 33.9651C185.619 36.1098 186.931 38.6511 188.897 39.5233C189.203 39.6606 189.478 39.8501 189.777 40.0145C189.491 40.4922 188.758 41.0782 187.946 41.4263C186.399 42.0916 185.554 41.6506 184.904 40.1866C184.055 38.2759 184.401 36.2471 184.695 34.288C184.815 33.4951 184.413 32.9691 184.246 32.3328C184.144 31.946 183.631 31.8571 183.279 31.9886C183.004 32.126 182.784 32.3531 182.655 32.6326C182.428 33.0851 182.351 33.617 182.105 34.0579C181.575 35.0133 180.912 35.8971 180.425 36.8718C178.745 40.2664 176.811 43.5286 174.638 46.6306C173.656 48.0153 172.391 49.2008 171.227 50.4521C170.921 50.7808 170.533 51.1599 170.026 50.9897C169.519 50.8195 169.498 50.2587 169.424 49.8158C169.055 47.5646 169.132 45.2961 169.274 43.0353C169.363 41.5945 169.531 40.1634 169.734 38.7361C169.927 37.3572 169.989 35.9493 170.618 34.6516C171.146 33.5589 171.699 32.4798 172.178 31.3639C173.691 27.8576 175.052 24.2895 176.433 20.7271C176.795 19.7911 177.079 18.8241 177.431 17.8842C177.504 17.6908 177.704 17.4085 177.87 17.3891C179.255 17.2247 180.651 17.1396 182.036 16.9791C183.751 16.7857 185.463 16.5401 187.174 16.2984C188.441 16.0238 188.321 15.8149 188.13 15.7646C184.898 15.2831 181.62 15.5712 178.301 15.314C178.586 14.3973 178.881 13.529 179.121 12.6432C179.686 10.5429 180.253 8.44266 180.761 6.32884C180.961 5.43051 181.098 4.51935 181.171 3.60197C181.241 2.85546 180.893 2.33908 180.295 2.16309C180.027 2.09042 179.744 2.09627 179.479 2.17993C179.215 2.26359 178.98 2.42154 178.802 2.63499C178.38 3.08004 178.004 3.56592 177.679 4.08546C176.866 5.5456 176.083 7.02314 175.358 8.53356C174.725 9.85445 174.186 11.2218 173.617 12.5736C173.292 13.3472 173.01 14.1324 172.672 14.8943C172.625 14.984 172.559 15.062 172.478 15.1226C172.398 15.1832 172.304 15.2248 172.205 15.2444C171.303 15.2972 170.4 15.3204 169.498 15.314C167.929 15.314 166.361 15.2676 164.791 15.2367C164.56 15.2367 164.328 15.198 164.04 15.1728C164.084 15.006 164.138 14.842 164.201 14.6816C164.702 13.5754 165.222 12.4769 165.638 11.3339C166.493 8.98223 167.295 6.6054 168.007 4.2073C168.252 3.30155 168.382 2.36845 168.394 1.43014C168.394 1.13467 168.301 0.846587 168.127 0.607691C167.953 0.368794 167.708 0.19151 167.427 0.101515C167.157 -0.0131019 166.855 -0.0312648 166.574 0.0500967C166.292 0.131458 166.047 0.307368 165.879 0.548246C165.493 1.03947 165.059 1.49396 164.719 2.00646C164.007 3.05853 163.298 4.1164 162.667 5.21682C162.037 6.31724 161.493 7.41185 160.979 8.54321C160.033 10.6106 159.124 12.6974 158.233 14.788C158.191 14.9426 158.092 15.0755 157.956 15.1596C157.82 15.2437 157.656 15.2726 157.5 15.2405C156.863 15.1896 156.225 15.1793 155.587 15.2096C152.493 15.3914 149.412 15.5751 146.331 15.8284C145.807 15.871 145.296 16.2152 144.807 16.4782C144.511 16.6349 144.498 16.8805 144.753 17.1493C145.385 17.8185 146.203 18.0235 147.074 18.1163C147.944 18.2091 148.774 18.2826 149.626 18.3368C151.094 18.4315 152.564 18.5302 154.034 18.5824C154.933 18.6172 155.836 18.5824 156.809 18.5824C156.74 18.8628 156.701 19.0407 156.649 19.2167C155.949 21.5607 155.231 23.8988 154.556 26.2486C154.307 27.1227 154.169 28.022 153.618 28.7859C153.39 29.107 153.193 29.4493 152.974 29.7761C152.251 30.8669 151.564 31.9847 150.791 33.0387C149.841 34.3325 148.826 35.5799 147.826 36.837C146.637 38.3239 145.223 39.6159 143.635 40.6662C142.978 41.1052 142.337 40.8848 142.2 40.0861C142.047 39.0231 141.951 37.9528 141.912 36.8795C141.871 36.2375 141.912 35.5857 141.862 34.9456C141.825 34.5588 140.895 33.8896 140.525 33.9786C140.267 34.0399 140.024 34.1521 139.81 34.3085C139.596 34.4649 139.415 34.6624 139.278 34.8895C138.632 35.9551 138.029 37.0536 137.294 38.0554C136.499 39.1423 135.665 40.2214 134.545 41.0163C134.297 41.1635 134.039 41.2928 133.772 41.4031C133.718 41.0743 133.579 40.7359 133.623 40.4187C134.01 37.305 135.42 34.7348 137.889 32.7873C138.636 32.2071 139.448 31.6985 140.523 31.8919C141.227 32.0176 141.51 31.6289 141.2 30.9636C140.977 30.5498 140.635 30.2129 140.218 29.9966C139.386 29.6098 138.528 29.8032 137.704 30.1629C136.814 30.5652 135.922 30.9655 135.046 31.3948C133.474 32.1684 131.933 32.9962 130.347 33.733C127.989 34.8257 126.119 36.1775 120.248 37.8311C119.394 38.0597 118.564 38.3665 117.766 38.7477L118.347 36.7596C118.449 36.4999 118.579 36.2517 118.733 36.0189C119.391 35.052 120.153 34.172 120.805 33.2089C122.068 31.3446 123.319 29.4706 124.526 27.5714C125.237 26.4536 125.895 25.301 126.518 24.129C127.616 22.0558 128.767 20.0058 129.784 17.892C130.48 16.4473 131.059 14.9427 131.646 13.4439C132.407 11.5099 133.049 9.54115 133.072 7.44861C133.083 6.6715 132.953 5.89884 132.687 5.16847C132.261 4.05064 130.654 3.72187 129.786 4.58828C128.927 5.46229 128.154 6.41763 127.479 7.44087C126.697 8.64356 125.977 9.88479 125.321 11.1599C124.183 13.3046 123.054 15.4552 122.002 17.6425C121.128 19.4585 120.323 21.317 119.567 23.1852C118.882 24.8774 118.271 26.6025 117.687 28.3334C116.943 30.5323 115.5 35.1022 115.494 35.1119C115.218 35.9919 115.212 36.0557 114.471 36.7751C113.185 38.0245 111.978 39.3589 110.446 40.3162C109.22 41.0898 108.799 40.8268 108.364 39.7631C107.816 38.4286 108.033 37.0207 108.031 35.6534C108.031 34.4408 108.34 33.2302 108.491 32.0156C108.578 31.302 108.188 30.6619 107.644 30.4936C107.161 30.3486 106.306 30.8572 106.068 31.3117C105.561 32.2787 105.101 33.2824 104.521 34.201C103.299 36.1169 102.032 38.0064 100.723 39.8695C100.224 40.5416 99.6592 41.1617 99.0361 41.7202C98.4792 42.2443 98.1929 42.138 98.0692 41.376C97.9295 40.7229 97.8697 40.0553 97.8912 39.3879C98.0465 37.5796 98.4493 35.8011 99.0884 34.1024C99.4558 33.0929 99.8619 32.0988 100.224 31.0854C100.417 30.5246 100.247 29.9096 99.9122 29.6794C99.3746 29.3081 98.8679 29.312 98.2916 29.7065C98.1134 29.8101 97.9561 29.9458 97.8274 30.1068C97.3478 30.8321 96.8991 31.5747 96.4311 32.3077C96.2219 32.6786 95.9798 33.0301 95.7078 33.3578C94.9594 34.1565 94.1606 34.905 93.4064 35.7056C92.225 36.9739 90.835 38.0303 89.2967 38.829C88.6102 39.1906 88.1789 39.1075 87.7264 38.4847C87.3103 37.9664 86.9655 37.3947 86.7014 36.7848C86.1366 35.2879 85.659 33.7543 85.1542 32.2322C84.839 31.2653 83.8913 30.4433 82.9592 30.4201C82.2672 30.3965 81.5932 30.6427 81.0794 31.1067C79.4374 32.5494 78.0779 34.2378 76.7976 35.9957C76.6738 36.1659 76.521 36.3168 76.3798 36.4753C76.4185 35.6631 76.5732 34.9108 76.6757 34.1546C76.815 33.0368 76.9407 31.9131 77.0045 30.7876C77.0393 30.1861 76.4843 29.544 75.9582 29.4087C75.4612 29.2791 74.8327 29.5615 74.4749 30.0682C74.2637 30.3798 74.0345 30.6788 73.7883 30.9636C72.4133 32.5107 71.0498 34.0579 69.6342 35.5606C68.497 36.7693 67.3135 37.9316 66.1125 39.0823C65.7329 39.4023 65.3236 39.6853 64.8902 39.9275C64.544 40.1499 64.2501 40.1209 64.1901 39.649C64.1108 39.0088 63.9735 38.3532 64.0315 37.715C64.1495 36.4231 64.4183 35.1448 64.546 33.8471C64.5951 33.3777 64.4971 32.9046 64.2655 32.4933C63.8613 31.8455 62.5095 31.8319 62.0454 32.7718C61.7707 33.3249 61.5387 33.9128 61.1828 34.4079C60.0727 35.9551 58.9323 37.4759 57.7616 38.9702C57.2627 39.6064 56.6844 40.1963 55.8277 40.5463C55.7871 40.3104 55.7426 40.1325 55.7271 39.9545C55.642 38.8967 56.0114 37.9413 56.4214 37.0091C56.9584 35.7869 57.6755 34.6519 58.5488 33.6421C59.3533 32.7196 60.2255 31.8609 61.3588 31.3446C61.9274 31.0854 62.173 30.8031 62.1324 30.3292C62.086 29.8883 61.6238 29.4667 61.1654 29.3139C59.9451 28.902 58.9375 29.5073 58.0401 30.103C57.0732 30.7508 56.2435 31.6501 55.3983 32.474C53.8686 33.9728 52.9229 35.8314 52.3446 37.8639C51.9443 39.268 51.8979 40.6991 52.5516 42.0741C53.242 43.5304 54.8317 44.3949 56.3827 44.0081C57.516 43.7257 58.4115 43.0585 59.1502 42.1786C59.7169 41.5036 60.2468 40.7997 60.7709 40.1363C61.0685 40.6256 61.3396 41.1304 61.5831 41.6487C62.1034 42.9096 63.8807 43.4879 65.1262 43.1688C66.2769 42.8719 67.3173 42.2487 68.1218 41.3741C69.582 39.8134 70.9512 38.1676 72.3572 36.5566C72.4907 36.4038 72.6202 36.2491 72.8426 35.9899C72.7363 36.661 72.6492 37.1658 72.5796 37.6705C72.3205 39.5117 72.069 41.3567 71.806 43.1978C71.6668 44.1648 72.1928 44.8204 72.8426 45.4102C72.8955 45.4714 72.9616 45.5197 73.036 45.5514C73.4443 45.6385 73.8704 45.5654 74.2263 45.3473C74.5823 45.1292 74.8409 44.7827 74.9487 44.3794C75.0867 43.7256 75.261 43.0799 75.4709 42.4455C76.2397 40.5013 77.2571 38.6649 78.4975 36.982C79.5396 35.5057 80.7994 34.1957 82.2339 33.0967C82.4022 33.9709 82.5318 34.7541 82.7058 35.5277C82.9186 36.4773 83.0926 37.4462 83.4252 38.3532C83.8628 39.583 84.6126 40.678 85.6009 41.5307C86.8716 42.6215 88.8655 43.0083 90.2966 42.1805C91.4454 41.5172 92.4994 40.6856 93.5843 39.9216C93.8145 39.7611 94.0194 39.5639 94.3173 39.3163C94.3173 39.6103 94.3173 39.794 94.3173 39.9777C94.3734 41.5849 94.6886 43.0972 95.8915 44.2924C96.2226 44.6423 96.6353 44.9045 97.0926 45.0557C97.55 45.2069 98.0377 45.2424 98.512 45.1588C99.3837 45.0148 100.169 44.5473 100.711 43.8495C101.604 42.7046 102.434 41.5114 103.254 40.3142C103.695 39.6722 104.057 38.976 104.478 38.2623C104.65 39.21 104.753 40.0609 104.968 40.8828C105.098 41.4441 105.342 41.9726 105.685 42.4356C106.028 42.8987 106.463 43.2864 106.961 43.5749C108.82 44.6424 110.543 44.2382 112.183 43.045C112.653 42.7007 113.108 42.3314 113.605 41.9465C112.862 45.0022 112.133 48.4388 111.638 51.7846C110.52 59.3715 110.957 63.9027 113.015 66.0455C113.414 66.4667 113.896 66.8004 114.43 67.0255C114.965 67.2505 115.541 67.362 116.121 67.3529C116.608 67.3488 117.094 67.2839 117.565 67.1595C121.87 66.0746 124.996 60.3017 126.139 57.8765C128.343 53.1905 129.504 47.9437 129.167 44.1822C128.933 41.5655 127.972 39.6258 126.438 38.5215C128.258 37.6725 129.713 36.9743 130.206 36.7036C130.699 36.4328 131.254 36.1137 131.88 35.7617C131.563 36.5353 131.277 37.1406 131.051 37.7788C130.534 39.2274 130.331 40.7184 130.768 42.2269C130.9 42.6796 131.134 43.096 131.452 43.4436C131.77 43.7912 132.165 44.0608 132.604 44.2314C133.043 44.402 133.516 44.469 133.986 44.4273C134.455 44.3855 134.909 44.2361 135.311 43.9907C136.205 43.4299 136.975 42.6369 137.723 41.8885C138.261 41.3431 138.663 40.6624 139.201 39.941C139.295 40.2698 139.357 40.4612 139.406 40.6546C139.773 42.1186 140.566 43.2055 142.096 43.5884C143.484 43.9346 144.693 43.4124 145.77 42.6389C147.878 41.1149 149.619 39.2061 151.185 37.1387C151.615 36.574 152.059 36.0209 152.539 35.4117C152.55 35.4821 152.555 35.5532 152.554 35.6244C152.27 38.1714 151.949 40.7146 151.711 43.2674C151.533 45.2014 151.651 47.1353 151.835 49.0538C151.99 50.688 152.34 52.2603 153.148 53.6953C153.449 54.2992 153.941 54.7862 154.548 55.08C155.86 55.6602 157.086 55.3875 158.171 54.5752C159.368 53.6817 160.398 52.5853 161.217 51.3359C161.886 50.3109 162.594 49.311 163.245 48.2744C164.168 46.8027 165.054 45.3077 165.953 43.8263C166.022 43.7355 166.099 43.6502 166.181 43.571C166.204 43.7741 166.226 43.8882 166.231 44.0023C166.291 45.5785 166.324 47.1547 166.415 48.7289C166.512 50.3766 166.995 51.8774 168.181 53.1074C169.535 54.4921 170.906 54.7474 172.501 53.6702C173.29 53.1024 174.013 52.4485 174.658 51.7207C176.611 49.6378 178.139 47.2301 179.589 44.7856C180.32 43.5536 181.007 42.2946 181.717 41.0453C181.802 40.8944 181.893 40.7475 181.978 40.6043C182.364 41.2619 182.684 41.8962 183.086 42.4745C184.376 44.3233 186.731 44.7353 188.669 43.8283C190.102 43.1591 191.125 42.0509 192.04 40.8171C192.253 40.5308 192.452 40.3181 192.862 40.3123C193.274 40.2854 193.681 40.2114 194.077 40.0918C195.643 39.705 197.028 38.9315 198.383 38.0767C200.317 36.8602 202.251 35.6418 203.731 33.8684C203.897 33.675 204.058 33.4661 204.218 33.265C204.244 33.2299 204.263 33.1899 204.273 33.1474C204.283 33.1049 204.284 33.0608 204.276 33.0178C204.268 32.9748 204.252 32.9339 204.227 32.8976C204.203 32.8613 204.172 32.8303 204.135 32.8066ZM178.883 6.03294L179.032 6.07357C178.76 7.33451 178.57 8.61864 178.197 9.84863C177.68 11.5544 177.036 13.2195 176.427 14.9001C176.261 15.3643 176.068 15.4204 175.238 15.225C176.29 12.0882 177.414 8.99383 178.883 6.03294ZM173.385 21.5665C173.685 20.4622 174.031 19.3676 174.31 18.2594C174.453 17.6986 174.762 17.5477 175.437 17.6908C174.663 19.5648 173.901 21.3789 173.145 23.1929L173.023 23.1504C173.143 22.6224 173.244 22.0887 173.385 21.5665ZM130.451 7.64201L130.656 7.70388C130.59 8.32412 130.492 8.94057 130.362 9.55082C129.589 12.5194 128.283 15.2772 126.949 18.0196C126.264 19.4256 125.537 20.8161 124.764 22.1757C123.526 24.3572 122.232 26.5077 120.959 28.6699C120.914 28.7402 120.846 28.7922 120.766 28.8169C123.245 21.4137 126.32 14.2774 130.446 7.63233L130.451 7.64201ZM116.778 64.0748C115.788 64.3243 115.479 64.0014 115.33 63.8466C113.494 61.9359 114.055 53.8926 116.595 43.2442C118.012 42.1457 120.754 40.5521 123.255 40.7301C123.835 40.7707 125.642 40.8925 125.963 44.5013C126.581 51.4268 121.172 62.957 116.772 64.0652L116.778 64.0748ZM165.514 5.47596L165.661 5.51853C165.52 6.00202 165.398 6.4855 165.232 6.96706C164.651 8.638 164.071 10.3186 163.433 11.9644C163.139 12.7148 162.019 14.7764 162.019 14.7764C162.019 14.7764 161.683 15.2115 161.246 15.1322C162.528 11.7884 163.843 8.54709 165.508 5.45663L165.514 5.47596ZM167.167 35.2589C167.015 35.8874 166.634 36.4715 166.307 37.0459C165.317 38.7838 164.314 40.5135 163.298 42.2347C162.454 43.6619 161.629 45.1027 160.712 46.4894C160.122 47.3242 159.476 48.1177 158.778 48.8643C158.13 49.6315 157.435 50.3587 156.699 51.0419C155.862 51.7884 155.575 51.6569 155.274 50.5565C154.693 48.3997 154.507 46.1555 154.726 43.9327C154.96 41.4185 155.245 38.8909 155.651 36.3902C156.057 33.8896 156.573 31.4587 157.169 29.0238C157.362 28.2077 157.964 27.4902 158.368 26.7224C159.335 24.9083 160.288 23.0962 161.226 21.2706C161.648 20.4506 162 19.5958 162.418 18.7758C162.473 18.6772 162.549 18.5917 162.641 18.525C162.732 18.4583 162.837 18.4119 162.948 18.389C164.446 18.2652 165.947 18.1743 167.448 18.0912C168.73 18.0215 170.014 17.9732 171.298 17.9171C171.408 17.9169 171.518 17.9233 171.627 17.9365C171.295 19.0504 170.97 20.1295 170.649 21.2087C170.304 22.3691 169.948 23.5295 169.627 24.7053C169.306 25.8811 169.003 27.0144 168.738 28.1864C168.2 30.5033 167.73 32.8782 167.162 35.2299L167.167 35.2589ZM192.288 36.6127C192.242 36.7395 192.154 36.847 192.039 36.9173C191.924 36.9877 191.789 37.0166 191.655 36.9994C189.961 36.9743 188.513 35.4948 188.478 33.7968C188.445 33.1729 188.54 32.5489 188.759 31.9636C188.977 31.3783 189.314 30.8443 189.748 30.395C190.634 29.4647 191.671 29.5421 192.355 30.6193C192.717 31.1879 193.017 32.385 193.005 33.2302C193 34.3849 192.754 35.526 192.282 36.5798L192.288 36.6127Z" fill="#EBE9DF"/>
</svg>
