<svg width="98" height="97" viewBox="0 0 98 97" fill="none" xmlns="http://www.w3.org/2000/svg">
<path d="M97.1078 42.3857C100.485 68.9549 81.6835 93.2309 55.1143 96.6078C28.5451 99.9846 4.26906 81.1835 0.892226 54.6143C-2.48461 28.0451 16.3165 3.76906 42.8857 0.392226C69.4549 -2.98461 93.7309 15.8165 97.1078 42.3857Z" fill="#EBE9DF"/>
<path fill-rule="evenodd" clip-rule="evenodd" d="M12.5676 52.9092C15.0971 73.8371 33.2812 88.6463 53.1831 85.9864L53.4093 87.8577C32.5246 90.6489 13.4424 75.1084 10.7881 53.147L12.5676 52.9092Z" fill="#1D1D1F"/>
<path d="M49.0004 22.0454L53.6454 25.1483L59.1242 24.0591L62.2281 28.7034L67.7066 29.7938L68.797 35.2723L73.4413 38.3762L72.3521 43.855L75.455 48.5L72.3521 53.1449L73.4413 58.6237L68.797 61.7276L67.7066 67.2061L62.2281 68.2965L59.1242 72.9408L53.6454 71.8516L49.0004 74.9545L44.3555 71.8516L38.8767 72.9408L35.7728 68.2965L30.2943 67.2061L29.2039 61.7276L24.5596 58.6237L25.6488 53.1449L22.5459 48.5L25.6488 43.855L24.5596 38.3762L29.2039 35.2723L30.2943 29.7938L35.7728 28.7034L38.8767 24.0591L44.3555 25.1483L49.0004 22.0454Z" fill="#1D1D1F"/>
<path d="M43.8555 51.0722C43.8555 45.9282 48.9994 41.6416 48.9994 41.6416C48.9994 41.6416 51.5302 43.7506 53.0417 46.7855L44.5713 53.6441C44.123 53.0157 43.8555 52.1781 43.8555 51.0722Z" fill="#EBE9DF"/>
<path d="M48.999 40.7842C48.999 40.7842 55.0003 45.9281 55.0003 51.0721C55.0003 52.7867 54.143 56.216 48.999 56.216" stroke="#EBE9DF" stroke-width="2" stroke-linecap="round"/>
<path d="M48.9993 40.7842C48.9993 40.7842 42.998 45.9281 42.998 51.0721C42.998 52.7867 43.8554 56.216 48.9993 56.216" stroke="#EBE9DF" stroke-width="2" stroke-linecap="round"/>
<path d="M7.89453 40.6819L14.453 42.3046L14.7731 41.011L12.4663 40.4402L12.7103 39.4542C13.0863 37.9345 13.0082 36.5039 11.3347 36.0899C9.34453 35.5975 8.78087 37.0996 8.44961 38.4384L7.89453 40.6819ZM9.4695 38.662C9.64184 37.9654 9.93822 37.1556 11.0147 37.4219C11.8832 37.6368 11.9233 38.3283 11.7263 39.1244L11.4622 40.1918L9.22777 39.639L9.4695 38.662Z" fill="#231F20"/>
<path d="M18.2881 31.6231L18.9457 30.2953L15.6577 30.341C15.7084 29.4198 15.306 28.8045 14.6045 28.4571C13.3352 27.8283 12.391 28.307 11.4024 30.3028L10.418 32.2903L16.4722 35.2891L17.0637 34.0949L14.6921 32.9202L15.1802 31.9348L15.3208 31.6509L18.2881 31.6231ZM12.4039 30.6325C12.8051 29.8224 13.3117 29.3454 14.0048 29.6887C14.6061 29.9866 14.7207 30.5321 14.2533 31.4757L13.7652 32.4611L11.9447 31.5594L12.4039 30.6325Z" fill="#231F20"/>
<path d="M18.1599 25.5559C16.9416 24.5433 16.8493 23.3275 17.5224 22.5177C18.1956 21.7079 19.4076 21.5763 20.626 22.5889C21.8515 23.6075 21.9437 24.8232 21.2706 25.6331C20.5975 26.4429 19.3854 26.5745 18.1599 25.5559ZM21.5076 21.5283C19.8951 20.188 17.9921 20.2907 16.7054 21.8387C15.4188 23.3866 15.6658 25.2763 17.2783 26.6166C18.8908 27.9568 20.801 27.8601 22.0876 26.3121C23.3742 24.7641 23.1201 22.8685 21.5076 21.5283Z" fill="#231F20"/>
<path d="M27.2409 16.8233C28.4654 18.4559 27.6752 19.4214 26.6985 20.1539L26.2065 20.5229L23.4052 16.7879L23.8973 16.4188C24.8739 15.6864 26.0276 15.2055 27.2409 16.8233ZM21.7129 16.7524L25.7666 22.1574L27.3695 20.9553C29.0842 19.6693 29.9546 18.1428 28.3443 15.9957C26.7339 13.8487 25.0304 14.2643 23.3158 15.5503L21.7129 16.7524Z" fill="#231F20"/>
<path d="M29.5059 11.4031L31.0964 14.9589C32.0059 16.992 33.0712 17.3423 34.8746 16.5356C36.678 15.7289 37.1099 14.7088 36.2004 12.6757L34.6099 9.11995L33.3934 9.66409L34.9878 13.2284C35.4749 14.3172 35.5637 15.0636 34.4408 15.5659C33.3179 16.0682 32.8038 15.5121 32.3167 14.4232L30.7223 10.8589L29.5059 11.4031Z" fill="#231F20"/>
<path d="M41.2015 14.2512L42.5046 13.9719L41.3154 8.42268L43.3565 7.9853L43.13 6.92829L37.7539 8.08032L37.9804 9.13733L40.0124 8.7019L41.2015 14.2512Z" fill="#231F20"/>
<path d="M47.2917 9.97242C47.2897 8.38819 48.1647 7.5391 49.2177 7.53781C50.2708 7.53653 51.1478 8.38348 51.1497 9.9677C51.1517 11.5612 50.2767 12.4103 49.2237 12.4116C48.1706 12.4129 47.2936 11.566 47.2917 9.97242ZM52.5289 9.96602C52.5264 7.86925 51.2293 6.47299 49.2164 6.47545C47.2035 6.47791 45.9099 7.87734 45.9125 9.9741C45.915 12.0709 47.2121 13.4764 49.225 13.474C51.2379 13.4715 52.5315 12.0628 52.5289 9.96602Z" fill="#231F20"/>
<path d="M63.3941 13.8869C62.8775 14.6833 62.1534 14.8044 61.3885 14.5359C60.474 14.2148 60.0106 13.1435 60.5446 11.6223C61.0632 10.1451 62.0884 9.61615 63.0469 9.95262C63.7503 10.1996 64.2463 10.6996 64.172 11.6711L65.3678 12.0909C65.6229 10.6891 64.9023 9.47809 63.4076 8.95332C61.5523 8.302 59.9502 9.15191 59.2433 11.1655C58.5271 13.2054 59.1549 14.8777 61.0542 15.5444C62.5753 16.0784 63.9691 15.5406 64.5899 14.3067L63.3941 13.8869Z" fill="#231F20"/>
<path d="M69.3535 11.5996L67.2697 14.8907C66.0783 16.7725 66.3752 17.8539 68.0444 18.9108C69.7136 19.9676 70.8024 19.7636 71.9938 17.8818L74.0776 14.5907L72.9517 13.8778L70.8629 17.1768C70.2248 18.1846 69.652 18.6712 68.6127 18.0132C67.5734 17.3551 67.7526 16.6193 68.3907 15.6115L70.4794 12.3125L69.3535 11.5996Z" fill="#231F20"/>
<path d="M76.2107 21.7541C76.6366 22.3441 76.8513 22.883 76.4522 23.2878C75.9484 23.7987 75.2539 23.4281 74.8292 23.0093C74.2585 22.4467 73.9702 21.7568 74.5641 20.9421L73.6483 20.0392C72.7139 21.1595 72.8689 22.5686 74.0501 23.7331C75.019 24.6884 76.4788 25.1722 77.4536 24.1835C78.4415 23.1814 77.8733 22.0322 77.2341 21.1142L76.7149 20.3799C76.3954 19.9209 76.2999 19.4603 76.6335 19.1218C77.0588 18.6905 77.7068 19.0022 78.1514 19.4405C78.6027 19.8854 78.9105 20.5554 78.4274 21.1914L79.3432 22.0943C80.1995 21.1196 79.9259 19.6981 78.9371 18.7233C78.0545 17.8531 76.6005 17.2572 75.6453 18.226C74.8209 19.0622 75.092 20.1146 75.7114 21.0394L76.2107 21.7541Z" fill="#231F20"/>
<path d="M78.2164 28.4402L78.9589 29.5468L83.6716 26.3848L84.8347 28.1182L85.7323 27.5159L82.6689 22.9502L81.7713 23.5525L82.9291 25.2782L78.2164 28.4402Z" fill="#231F20"/>
<path d="M84.4675 32.5069C85.9391 31.9204 87.0512 32.4201 87.4411 33.3984C87.8309 34.3766 87.3675 35.5043 85.8958 36.0908C84.4155 36.6808 83.3035 36.181 82.9136 35.2028C82.5237 34.2246 82.9872 33.0969 84.4675 32.5069ZM86.4065 37.372C88.3542 36.5957 89.1732 34.8749 88.4279 33.005C87.6827 31.1352 85.9046 30.4494 83.9568 31.2257C82.0091 32.002 81.1815 33.7263 81.9267 35.5961C82.672 37.466 84.4587 38.1483 86.4065 37.372Z" fill="#231F20"/>
<path d="M84.3704 45.004L89.6133 46.0324L84.5722 46.6504L84.7231 47.8806L91.4291 47.0584L91.1909 45.116L85.7709 44.1751L90.7974 41.9064L90.5615 39.9824L83.8555 40.8046L84.0063 42.0348L89.0474 41.4168L84.2093 43.6905L84.3704 45.004Z" fill="#231F20"/>
<path d="M91.1631 52.2679L91.2559 50.9385L84.516 50.4684L84.4233 51.7977L91.1631 52.2679Z" fill="#231F20"/>
<path d="M89.5776 60.7304L90.7322 55.8612L89.635 55.601L88.8588 58.8744L85.2404 54.2621L84.2249 54.0213L82.98 59.2714L84.0862 59.5337L84.9484 55.8976L88.562 60.4896L89.5776 60.7304Z" fill="#231F20"/>
<path d="M82.5256 60.8429L81.9391 62.0706L82.9702 63.09L81.8373 65.4612L80.3964 65.2994L79.7737 66.6028L86.9586 67.2367L87.5371 66.0258L82.5256 60.8429ZM85.7924 65.8946L82.9859 65.5865L83.7893 63.9047L85.7924 65.8946ZM87.7339 69.0943L88.4128 67.6733L87.8764 66.3532L87.4225 67.3034L87.7339 69.0943Z" fill="#231F20"/>
<path d="M84.8564 71.2471L78.0308 69.1089L77.2203 70.2018L81.2594 76.0975L82.1032 74.9598L78.9488 70.6714L83.996 72.4073L84.8564 71.2471Z" fill="#231F20"/>
<path d="M74.4527 73.4552L70.8052 76.7577L71.5307 77.559L74.1904 75.151L75.4225 76.5119L72.908 78.7886L73.6335 79.5899L76.1481 77.3132L77.2739 78.5567L74.6143 80.9647L75.3398 81.7661L78.9873 78.4636L74.4527 73.4552Z" fill="#231F20"/>
<path d="M71.2775 84.4974L72.4238 83.8179L68.9785 78.0061L65.0025 80.3632L65.5537 81.293L68.3835 79.6155L71.2775 84.4974Z" fill="#231F20"/>
</svg>
