<svg width="104" height="104" viewBox="0 0 104 104" fill="none" xmlns="http://www.w3.org/2000/svg">
<path d="M83.7751 25.0616L82.5718 23.7184L90.252 16.9316L91.4554 18.2749L83.7751 25.0616Z" fill="#EBE9DF"/>
<path d="M90.6767 36.4082L96.3396 29.0559L88.8717 32.4493L88.1638 30.8586L97.5075 26.5815L98.4985 28.7731L92.8357 36.1254L100.304 32.732L101.011 34.3227L91.6677 38.5998L90.6767 36.4082Z" fill="#EBE9DF"/>
<path d="M98.1445 47.8256C98.3569 46.1642 99.1002 44.7857 100.834 44.6796C102.746 44.5382 103.843 46.4824 103.984 48.3558C104.126 50.3706 103.312 52.032 101.224 52.5622L101.118 50.8301C102.356 50.4413 102.604 49.3809 102.533 48.3558C102.462 47.5781 102.038 46.4117 101.047 46.4824C100.268 46.5531 99.9142 47.1893 99.808 48.1084L99.6664 49.3809C99.4541 51.1836 98.8878 52.951 96.835 53.0924C94.7468 53.2338 93.5788 51.2543 93.4373 49.2395C93.2603 46.8005 94.4637 45.0685 96.6934 44.6796L96.7996 46.447C95.4193 46.8712 94.7822 47.7902 94.8884 49.2041C94.9592 50.406 95.5962 51.3604 96.5872 51.2897C97.649 51.219 97.8968 50.0525 98.0384 49.0628L98.1445 47.8256Z" fill="#EBE9DF"/>
<path d="M102.109 65.7819C101.507 67.9734 100.622 69.8822 97.826 69.1399C95.3131 68.4683 95.2777 66.4535 95.9148 64.1205L96.3395 62.5652L92.5879 61.5401L93.048 59.8081L102.958 62.5299L102.109 65.7819ZM101.153 63.8731L97.7906 62.9541L97.3659 64.58C97.012 65.8879 96.9058 66.9483 98.3569 67.3372C99.9496 67.7613 100.41 66.6302 100.764 65.4284L101.153 63.8731Z" fill="#EBE9DF"/>
<path d="M87.1375 74.5483L88.0577 73.0283L96.8351 78.3658L95.9149 79.8858L87.1375 74.5483Z" fill="#EBE9DF"/>
<path d="M82.6777 86.3544C82.7839 86.213 82.9254 86.107 83.067 85.9656L84.3412 84.7991L81.4389 81.6178L82.7839 80.416L89.6855 88.0158L87.2788 90.2073C85.049 92.2221 83.4209 92.7877 81.899 91.091C81.0142 90.1013 80.8726 89.0408 81.5451 87.839L76.6609 85.9656L78.1474 84.6224L82.6777 86.3544ZM87.3849 88.1572L85.3322 85.8949L84.0226 87.0967C82.89 88.1218 82.4299 88.9702 83.2794 89.8538C84.1996 90.8436 85.0844 90.278 86.1462 89.3236L87.3849 88.1572Z" fill="#EBE9DF"/>
<path d="M72.4138 99.8572L70.6442 100.564L63.2117 92.5049L65.0521 91.7626L66.6448 93.5653L70.5026 92.01L70.361 89.6064L72.0599 88.8994L72.4138 99.8572ZM70.5734 93.636L67.7066 94.8025L70.8211 98.3019L70.5734 93.636Z" fill="#EBE9DF"/>
<path d="M54.6466 103.993C51.3905 104.099 48.8776 103.039 48.7714 99.0443C48.6652 95.05 51.1073 93.8481 54.3635 93.7421L57.1595 93.6714L57.4427 103.922L54.6466 103.993ZM54.7174 102.544L55.6376 102.508L55.4253 95.156L54.5051 95.1913C52.5231 95.262 50.5764 95.7569 50.6472 98.9736C50.7534 102.226 52.7354 102.614 54.7174 102.544Z" fill="#EBE9DF"/>
<path d="M36.667 101.766L34.862 101.165L34.4019 90.2427L36.2777 90.8436L36.3485 93.2472L40.3125 94.5551L41.7636 92.6463L43.4978 93.2119L36.667 101.766ZM39.3215 95.8276L36.3839 94.8732L36.49 99.5391L39.3215 95.8276Z" fill="#EBE9DF"/>
<path d="M12.2814 85.7181C10.8303 83.9861 9.73308 82.1833 11.9274 80.3099C13.9094 78.6486 15.5729 79.709 17.1302 81.5824L18.192 82.8196L21.165 80.3099L22.333 81.6885L14.5111 88.3338L12.2814 85.7181ZM14.4049 86.0009L17.0594 83.774L15.9622 82.5015C15.0774 81.4764 14.2634 80.8048 13.1308 81.7592C11.8566 82.8196 12.5645 83.8447 13.3785 84.8344L14.4049 86.0009Z" fill="#EBE9DF"/>
<path d="M4.60101 73.9473L1.98193 67.1959L3.39765 66.6657L5.37965 71.7557L7.92794 70.766L6.05212 65.9587L7.43244 65.3931L9.30827 70.2004L12.1043 69.1047L10.1223 64.0146L11.538 63.4844L14.1571 70.2358L4.60101 73.9473Z" fill="#EBE9DF"/>
<path d="M8.74205 55.2485L8.4943 50.0878L10.0162 50.0171L10.3347 56.9806L0.0707858 57.4401L0 55.6374L8.74205 55.2485Z" fill="#EBE9DF"/>
<path d="M1.76953 38.1756L2.30043 36.3729L13.2368 35.5952L12.6706 37.4686L10.2638 37.5747L9.06047 41.569L11.0071 42.9829L10.4762 44.7503L1.76953 38.1756ZM7.78633 40.6499L8.67115 37.6807L3.99929 37.9282L7.78633 40.6499Z" fill="#EBE9DF"/>
<path d="M16.8115 13.7504L18.2272 12.5132L27.8895 17.6739L26.403 18.9818L24.2794 17.8153L21.2002 20.5018L22.1205 22.7287L20.7401 23.9305L16.8115 13.7504ZM20.5986 19.0172L22.9345 16.967L18.8643 14.7047L20.5986 19.0172Z" fill="#EBE9DF"/>
<path d="M35.4638 9.04929C35.3223 9.11999 35.1453 9.19068 34.9683 9.26138L33.3403 9.89764L34.8975 13.9273L33.2341 14.5635L29.5178 5.01965L32.5616 3.81783C35.3577 2.72205 37.0565 2.79275 37.9059 4.91361C38.4014 6.15078 38.1183 7.21121 37.0565 8.05956L40.9497 11.559L39.0739 12.3013L35.4638 9.04929ZM31.7122 5.72661L32.8448 8.58977L34.5082 7.95351C35.9593 7.38795 36.6672 6.78704 36.2071 5.65591C35.7116 4.41874 34.6498 4.63083 33.3403 5.1257L31.7122 5.72661Z" fill="#EBE9DF"/>
<path d="M48.9837 1.69669L45.7629 1.83808L45.6921 0.353477L53.9387 0L54.0095 1.4846L50.7887 1.62599L51.1426 10.3569L49.3376 10.4276L48.9837 1.69669Z" fill="#EBE9DF"/>
<path d="M63.4947 1.30762L70.4318 3.35778L70.0071 4.80704L64.7689 3.25174L63.9902 5.86747L68.9453 7.31673L68.5206 8.73063L63.5655 7.28138L62.7161 10.1799L67.9543 11.7352L67.5295 13.1844L60.5571 11.1343L63.4947 1.30762Z" fill="#EBE9DF"/>
</svg>
